<svg width="10" height="10" viewBox="0 0 10 10" fill="none" xmlns="http://www.w3.org/2000/svg">
<path d="M6.2 6.2H7.8L9 9H1L2.2 6.2H3.8M5.4 3.4C5.4 3.50609 5.35786 3.60783 5.28284 3.68284C5.20783 3.75786 5.10609 3.8 5 3.8C4.89391 3.8 4.79217 3.75786 4.71716 3.68284C4.64214 3.60783 4.6 3.50609 4.6 3.4C4.6 3.29391 4.64214 3.19217 4.71716 3.11716C4.79217 3.04214 4.89391 3 5 3C5.10609 3 5.20783 3.04214 5.28284 3.11716C5.35786 3.19217 5.4 3.29391 5.4 3.4ZM2.6 3.4C2.6 5.4 5 7.4 5 7.4C5 7.4 7.4 5.4 7.4 3.4C7.4 2.0332 6.3256 1 5 1C3.6744 1 2.6 2.0332 2.6 3.4Z" stroke="#FF3346" stroke-width="0.5"/>
</svg>
