<svg width="8" height="6" viewBox="0 0 8 6" fill="none" xmlns="http://www.w3.org/2000/svg">
<path d="M7.42857 0H0.571429C0.419876 0 0.274531 0.0589998 0.167368 0.16402C0.0602039 0.269041 0 0.411479 0 0.56V5.04C0 5.18852 0.0602039 5.33096 0.167368 5.43598C0.274531 5.541 0.419876 5.6 0.571429 5.6H7.42857C7.58012 5.6 7.72547 5.541 7.83263 5.43598C7.9398 5.33096 8 5.18852 8 5.04V0.56C8 0.411479 7.9398 0.269041 7.83263 0.16402C7.72547 0.0589998 7.58012 0 7.42857 0ZM6.8 0.56L4 2.4584L1.2 0.56H6.8ZM0.571429 5.04V0.8148L3.83714 3.0296C3.88497 3.06212 3.94179 3.07954 4 3.07954C4.05821 3.07954 4.11503 3.06212 4.16286 3.0296L7.42857 0.8148V5.04H0.571429Z" fill="#FF3346"/>
</svg>
