<svg width="9" height="8" viewBox="0 0 9 8" fill="none" xmlns="http://www.w3.org/2000/svg">
<path d="M7.07985 8H7.02755C0.981392 7.65231 0.122931 2.55077 0.00293071 0.993846C-0.00673844 0.872794 0.00757338 0.751023 0.0450461 0.635511C0.0825188 0.519999 0.142416 0.413017 0.221305 0.320693C0.300195 0.228369 0.396526 0.152519 0.50478 0.0974891C0.613034 0.0424588 0.731082 0.00932979 0.852162 2.88489e-07H2.54755C2.67079 -0.000119023 2.79124 0.0367725 2.89328 0.105896C2.99532 0.17502 3.07425 0.273191 3.11985 0.387693L3.58755 1.53846C3.63258 1.65032 3.64375 1.77295 3.61968 1.89111C3.59561 2.00926 3.53736 2.11775 3.45216 2.20308L2.79678 2.86462C2.89915 3.44638 3.17776 3.98267 3.5949 4.40091C4.01204 4.81915 4.54759 5.09917 5.12908 5.20308L5.79678 4.54154C5.88339 4.45728 5.9929 4.40038 6.11163 4.37795C6.23037 4.35552 6.35308 4.36854 6.46447 4.41539L7.62447 4.88C7.73724 4.92704 7.83346 5.00659 7.90086 5.10851C7.96826 5.21044 8.00379 5.33012 8.00293 5.45231V7.07692C8.00293 7.32174 7.90568 7.55653 7.73257 7.72964C7.55946 7.90275 7.32467 8 7.07985 8ZM0.926008 0.615385C0.844402 0.615385 0.76614 0.647802 0.708436 0.705506C0.650733 0.763209 0.618315 0.841472 0.618315 0.923077V0.947693C0.759854 2.76923 1.66755 7.07692 7.06139 7.38462C7.10181 7.38711 7.14233 7.38161 7.18062 7.36841C7.21891 7.35522 7.25422 7.33459 7.28452 7.30772C7.31482 7.28085 7.33952 7.24826 7.3572 7.21182C7.37488 7.17539 7.38519 7.13582 7.38755 7.09538V5.45231L6.22755 4.98769L5.34447 5.86462L5.19678 5.84615C2.51985 5.51077 2.15678 2.83385 2.15678 2.80615L2.13831 2.65846L3.01216 1.77539L2.55062 0.615385H0.926008Z" fill="#FF3346"/>
</svg>
