<svg width="53" height="54" viewBox="0 0 53 54" fill="none" xmlns="http://www.w3.org/2000/svg">
<path fill-rule="evenodd" clip-rule="evenodd" d="M22.1104 0.28422C22.1104 0.440628 21.9641 0.672124 21.7853 0.798817C21.6064 0.925509 21.4601 1.14119 21.4601 1.27811C21.4601 1.41502 21.3138 1.6307 21.135 1.7574C20.9561 1.88409 20.8098 2.15665 20.8098 2.36322C20.8098 2.77797 20.4666 3.19527 20.1257 3.19527C20.0049 3.19527 19.8007 3.33905 19.6718 3.51479C19.3421 3.96421 19.184 3.91244 19.184 3.35503C19.184 2.9823 19.2562 2.87574 19.5092 2.87574C19.688 2.87574 19.8344 2.80385 19.8344 2.71598C19.8344 2.4709 18.7035 2.52634 18.4409 2.78451C18.1258 3.09398 18.1486 3.19527 18.5337 3.19527C18.7983 3.19527 18.8589 3.30183 18.8589 3.76578C18.8589 4.37001 18.5625 4.7929 18.1388 4.7929C17.9919 4.7929 17.8834 4.92838 17.8834 5.11243C17.8834 5.28817 17.9566 5.43195 18.046 5.43195C18.1354 5.43195 18.2086 5.36006 18.2086 5.27219C18.2086 5.18432 18.3549 5.11243 18.5337 5.11243C18.8048 5.11243 18.8589 5.21899 18.8589 5.75148C18.8589 6.10296 18.7857 6.39053 18.6963 6.39053C18.6069 6.39053 18.5337 6.46243 18.5337 6.5503C18.5337 6.63817 18.8264 6.71006 19.184 6.71006C19.9057 6.71006 19.9966 6.57602 19.5092 6.23077C19.3183 6.09545 19.184 5.81714 19.184 5.55641C19.184 5.21899 19.2621 5.11243 19.5092 5.11243C19.688 5.11243 19.8344 5.04053 19.8344 4.95266C19.8344 4.6702 20.4052 4.78235 20.6472 5.11243C20.7762 5.28817 20.9804 5.43195 21.1012 5.43195C21.2219 5.43195 21.4333 5.54251 21.5708 5.67767C21.7958 5.89878 21.7864 5.95262 21.4778 6.21559C21.0695 6.56372 21.0436 6.71006 21.3904 6.71006C21.7189 6.71006 22.1104 6.32535 22.1104 6.00247C22.1104 5.86443 22.1836 5.75148 22.273 5.75148C22.3624 5.75148 22.4356 5.60769 22.4356 5.43195C22.4356 5.25621 22.3624 5.11243 22.273 5.11243C22.1836 5.11243 22.1104 5.18432 22.1104 5.27219C22.1104 5.36006 21.9641 5.43195 21.7853 5.43195C21.6064 5.43195 21.4601 5.36006 21.4601 5.27219C21.4601 5.18432 21.3138 5.11243 21.135 5.11243C20.923 5.11243 20.8098 5.00586 20.8098 4.80616C20.8098 4.63777 20.7184 4.45803 20.6066 4.40675C20.444 4.3323 20.444 4.29492 20.6066 4.22047C20.7184 4.16918 20.8098 4.0198 20.8098 3.88832C20.8098 3.75699 21.1025 3.37324 21.4601 3.0355C21.8178 2.69776 22.1104 2.31401 22.1104 2.18269C22.1104 2.0512 22.202 1.90182 22.3137 1.85054C22.4762 1.77609 22.4762 1.73871 22.3137 1.66426C22.0725 1.5537 22.0384 0.95858 22.273 0.95858C22.3624 0.95858 22.4356 0.742899 22.4356 0.47929C22.4356 0.21568 22.3624 0 22.273 0C22.1836 0 22.1104 0.127972 22.1104 0.28422ZM32.8405 1.11834C32.8405 1.54443 32.8946 1.59763 33.3282 1.59763C33.5965 1.59763 33.816 1.52574 33.816 1.43787C33.816 1.35 33.9623 1.27811 34.1411 1.27811C34.3199 1.27811 34.4663 1.20621 34.4663 1.11834C34.4663 1.03047 34.6126 0.95858 34.7914 0.95858C34.9702 0.95858 35.1166 0.886686 35.1166 0.798817C35.1166 0.710947 34.8971 0.639053 34.6288 0.639053C34.3606 0.639053 34.1411 0.710947 34.1411 0.798817C34.1411 0.886686 33.9216 0.95858 33.6534 0.95858C33.3851 0.95858 33.1656 0.886686 33.1656 0.798817C33.1656 0.710947 33.0925 0.639053 33.0031 0.639053C32.9137 0.639053 32.8405 0.854734 32.8405 1.11834ZM36.4172 1.43787C36.4172 1.52574 36.2709 1.59763 36.092 1.59763C35.803 1.59763 35.7669 1.7042 35.7669 2.55621C35.7669 3.0887 35.8391 3.51479 35.9294 3.51479C36.027 3.51479 36.092 4.15385 36.092 5.11243C36.092 6.07101 36.027 6.71006 35.9294 6.71006C35.84 6.71006 35.7669 6.92574 35.7669 7.18935C35.7669 7.56208 35.6947 7.66864 35.4417 7.66864C35.1887 7.66864 35.1166 7.56208 35.1166 7.18935C35.1166 6.81662 35.0444 6.71006 34.7914 6.71006C34.5443 6.71006 34.4663 6.6035 34.4663 6.26608C34.4663 6.00534 34.332 5.72704 34.1411 5.59172C33.9623 5.46502 33.816 5.23353 33.816 5.07712C33.816 4.92087 33.7428 4.7929 33.6534 4.7929C33.564 4.7929 33.4908 5.08047 33.4908 5.43195C33.4908 5.78343 33.564 6.07101 33.6534 6.07101C33.7428 6.07101 33.816 6.21479 33.816 6.39053C33.816 6.56627 33.8891 6.71006 33.9785 6.71006C34.0679 6.71006 34.1411 6.85385 34.1411 7.02959C34.1411 7.20533 34.2143 7.34911 34.3037 7.34911C34.3931 7.34911 34.4663 7.4929 34.4663 7.66864C34.4663 7.84438 34.5394 7.98817 34.6288 7.98817C34.7183 7.98817 34.7914 8.10112 34.7914 8.23915C34.7914 8.53184 34.41 8.94674 34.1411 8.94674C33.8722 8.94674 33.4908 8.53184 33.4908 8.23915C33.4908 8.10112 33.4176 7.98817 33.3282 7.98817C33.2388 7.98817 33.1656 7.84438 33.1656 7.66864C33.1656 7.4929 33.0925 7.34911 33.0031 7.34911C32.9137 7.34911 32.8405 7.23169 32.8405 7.08822C32.8405 6.94475 32.6758 6.68354 32.4747 6.50764C32.2266 6.29068 32.1743 6.16463 32.3121 6.11606C32.424 6.0766 32.5153 5.90661 32.5153 5.73822C32.5153 5.50449 32.3999 5.43195 32.0276 5.43195C31.5508 5.43195 31.5399 5.44969 31.5399 6.23077C31.5399 6.67012 31.4667 7.02959 31.3773 7.02959C31.2879 7.02959 31.2147 7.38905 31.2147 7.8284C31.2147 8.26775 31.1416 8.62722 31.0521 8.62722C30.9627 8.62722 30.8896 8.91479 30.8896 9.26627V9.90532H30.0767C29.6296 9.90532 29.2638 9.97722 29.2638 10.0651C29.2638 10.153 29.6296 10.2249 30.0767 10.2249H30.8896V11.3432C30.8896 11.9822 30.9593 12.4615 31.0521 12.4615C31.145 12.4615 31.2147 11.9822 31.2147 11.3432C31.2147 10.7041 31.2845 10.2249 31.3773 10.2249C31.4721 10.2249 31.5399 9.69236 31.5399 8.94674C31.5399 8.20113 31.6077 7.66864 31.7025 7.66864C31.7919 7.66864 31.865 7.45296 31.865 7.18935C31.865 6.92574 31.9068 6.71006 31.9579 6.71006C32.1487 6.71006 32.5153 7.17545 32.5153 7.41765C32.5153 7.55569 32.5885 7.66864 32.6779 7.66864C32.7673 7.66864 32.8405 7.79661 32.8405 7.95286C32.8405 8.10927 32.9868 8.34076 33.1656 8.46745C33.7553 8.88508 33.4061 9.5858 32.6082 9.5858C32.3783 9.5858 32.1902 9.65769 32.1902 9.74556C32.1902 9.83343 32.5978 9.90532 33.0959 9.90532C34.0057 9.90532 34.4663 10.1312 34.4663 10.5776C34.4663 10.6963 34.6126 10.897 34.7914 11.0237C34.9702 11.1504 35.1166 11.3819 35.1166 11.5383C35.1166 11.7476 35.2452 11.8225 35.6043 11.8225C35.9428 11.8225 36.092 11.7444 36.092 11.567C36.092 11.4266 35.8725 11.1101 35.6043 10.8639C35.336 10.6177 35.1166 10.3012 35.1166 10.1608C35.1166 10.0119 34.981 9.90532 34.7914 9.90532C34.6126 9.90532 34.4663 9.86427 34.4663 9.8141C34.4663 9.62654 34.9398 9.26627 35.1863 9.26627C35.3268 9.26627 35.4417 9.19438 35.4417 9.10651C35.4417 9.01864 35.5547 8.94674 35.6929 8.94674C35.8311 8.94674 36.1237 8.77021 36.3432 8.55453C36.7165 8.18787 36.7423 8.05351 36.7423 6.4776C36.7423 5.46103 36.6778 4.7929 36.5798 4.7929C36.4903 4.7929 36.4172 4.43343 36.4172 3.99408C36.4172 3.55473 36.4903 3.19527 36.5798 3.19527C36.6692 3.19527 36.7423 3.33905 36.7423 3.51479C36.7423 3.69053 36.8155 3.83432 36.9049 3.83432C36.9943 3.83432 37.0675 4.01597 37.0675 4.23788C37.0675 4.50293 37.3174 4.887 37.7949 5.35622C38.1948 5.7494 38.5606 6.07101 38.6077 6.07101C38.8337 6.07101 38.6552 5.47557 38.3681 5.27219C38.1893 5.1455 38.0429 4.914 38.0429 4.75759C38.0429 4.60134 37.9698 4.47337 37.8804 4.47337C37.791 4.47337 37.7178 4.32959 37.7178 4.15385C37.7178 3.97811 37.6446 3.83432 37.5552 3.83432C37.4658 3.83432 37.3926 3.69053 37.3926 3.51479C37.3926 3.33905 37.3195 3.19527 37.2301 3.19527C37.1406 3.19527 37.0675 2.86663 37.0675 2.46499C37.0675 2.04497 36.9688 1.63757 36.8352 1.50641C36.5628 1.23865 36.4172 1.21484 36.4172 1.43787ZM22.1104 1.7574C22.1104 1.84527 22.0373 1.91716 21.9479 1.91716C21.8584 1.91716 21.7853 1.84527 21.7853 1.7574C21.7853 1.66953 21.8584 1.59763 21.9479 1.59763C22.0373 1.59763 22.1104 1.66953 22.1104 1.7574ZM25.0368 2.07692C25.0368 2.16479 24.9219 2.23669 24.7814 2.23669C24.4528 2.23669 24.0613 2.6214 24.0613 2.94428C24.0613 3.0887 23.9235 3.19527 23.7362 3.19527C23.5195 3.19527 23.411 3.30183 23.411 3.51479C23.411 3.69053 23.3379 3.83432 23.2485 3.83432C23.159 3.83432 23.0859 4.19379 23.0859 4.63314C23.0859 5.07248 23.159 5.43195 23.2485 5.43195C23.3379 5.43195 23.411 5.57574 23.411 5.75148C23.411 5.95134 23.5195 6.07101 23.7003 6.07101C23.8594 6.07101 24.095 6.21479 24.2239 6.39053C24.4187 6.65606 24.6448 6.71006 25.5605 6.71006C26.1869 6.71006 26.6626 6.64104 26.6626 6.5503C26.6626 6.46243 26.7756 6.39053 26.9138 6.39053C27.2391 6.39053 27.9632 5.67895 27.9632 5.35926C27.9632 5.00251 27.8265 5.0514 27.3129 5.59172C27.0624 5.85533 26.7403 6.07101 26.5974 6.07101C26.4543 6.07101 26.3374 6.1429 26.3374 6.23077C26.3374 6.31864 25.9318 6.39053 25.4359 6.39053C24.6954 6.39053 24.4629 6.3204 24.1353 5.99831C23.9158 5.78263 23.7362 5.49506 23.7362 5.35926C23.7362 5.22346 23.663 5.11243 23.5736 5.11243C23.4842 5.11243 23.411 4.96864 23.411 4.7929C23.411 4.61716 23.4842 4.47337 23.5736 4.47337C23.663 4.47337 23.7362 4.32959 23.7362 4.15385C23.7362 3.97811 23.8094 3.83432 23.8988 3.83432C23.9882 3.83432 24.0613 3.72328 24.0613 3.58749C24.0613 3.2678 24.7855 2.55621 25.1108 2.55621C25.249 2.55621 25.362 2.48432 25.362 2.39645C25.362 2.30858 25.5814 2.23669 25.8497 2.23669C26.1179 2.23669 26.3374 2.30858 26.3374 2.39645C26.3374 2.48432 26.5569 2.55621 26.8252 2.55621C27.0934 2.55621 27.3129 2.62811 27.3129 2.71598C27.3129 2.80385 27.4592 2.87574 27.638 2.87574C27.8169 2.87574 27.9632 2.83468 27.9632 2.78451C27.9632 2.59695 27.4896 2.23669 27.2431 2.23669C27.1027 2.23669 26.9877 2.16479 26.9877 2.07692C26.9877 1.98809 26.5541 1.91716 26.0123 1.91716C25.4704 1.91716 25.0368 1.98809 25.0368 2.07692ZM12.0307 2.71598C12.0307 2.80385 11.8844 2.87574 11.7055 2.87574C11.5267 2.87574 11.3804 2.94763 11.3804 3.0355C11.3804 3.12337 11.5267 3.19527 11.7055 3.19527C11.8844 3.19527 12.0307 3.26716 12.0307 3.35503C12.0307 3.4429 11.9575 3.51479 11.8681 3.51479C11.7733 3.51479 11.7055 4.04728 11.7055 4.7929C11.7055 5.53851 11.7733 6.07101 11.8681 6.07101C11.9575 6.07101 12.0307 5.85533 12.0307 5.59172C12.0307 5.22586 12.1045 5.11243 12.3423 5.11243C12.5137 5.11243 12.6966 5.02264 12.7488 4.91272C12.8245 4.75296 12.8626 4.75296 12.9383 4.91272C13.0816 5.21435 13.9816 5.16898 13.9816 4.86032C13.9816 4.72148 14.2742 4.33182 14.6319 3.99408C15.3715 3.29576 15.4124 3.19527 14.9571 3.19527C14.7782 3.19527 14.6319 3.12337 14.6319 3.0355C14.6319 2.94763 14.4856 2.87574 14.3067 2.87574C14.1279 2.87574 13.9816 2.80385 13.9816 2.71598C13.9816 2.62715 13.548 2.55621 13.0061 2.55621C12.4643 2.55621 12.0307 2.62715 12.0307 2.71598ZM15.9325 2.71598C15.9325 2.80385 16.0057 2.87574 16.0951 2.87574C16.1845 2.87574 16.2577 3.09142 16.2577 3.35503C16.2577 3.61864 16.3308 3.83432 16.4202 3.83432C16.515 3.83432 16.5828 4.36681 16.5828 5.11243V6.39053H16.0951C15.8268 6.39053 15.6074 6.46243 15.6074 6.5503C15.6074 6.63912 16.041 6.71006 16.5828 6.71006C17.1247 6.71006 17.5583 6.63912 17.5583 6.5503C17.5583 6.46243 17.412 6.39053 17.2331 6.39053C16.9276 6.39053 16.908 6.28397 16.908 4.63314C16.908 3.56799 16.972 2.87574 17.0706 2.87574C17.16 2.87574 17.2331 2.80385 17.2331 2.71598C17.2331 2.62811 16.9405 2.55621 16.5828 2.55621C16.2252 2.55621 15.9325 2.62811 15.9325 2.71598ZM13.6564 3.0355C13.6564 3.12337 13.8759 3.19527 14.1442 3.19527C14.4124 3.19527 14.6319 3.26716 14.6319 3.35503C14.6319 3.4429 14.5587 3.51479 14.4693 3.51479C14.3799 3.51479 14.3067 3.65858 14.3067 3.83432C14.3067 4.04728 14.1983 4.15385 13.9816 4.15385C13.8028 4.15385 13.6564 4.22574 13.6564 4.31361C13.6564 4.40148 13.3638 4.47337 13.0061 4.47337H12.3558V3.83432C12.3558 3.30183 12.41 3.19527 12.681 3.19527C12.8598 3.19527 13.0061 3.12337 13.0061 3.0355C13.0061 2.94763 13.1525 2.87574 13.3313 2.87574C13.5101 2.87574 13.6564 2.94763 13.6564 3.0355ZM27.9632 3.99408C27.9632 4.43343 28.0364 4.7929 28.1258 4.7929C28.2152 4.7929 28.2883 4.43343 28.2883 3.99408C28.2883 3.55473 28.2152 3.19527 28.1258 3.19527C28.0364 3.19527 27.9632 3.55473 27.9632 3.99408ZM33.1656 3.67456C33.1656 3.93817 33.2388 4.15385 33.3282 4.15385C33.4176 4.15385 33.4908 3.93817 33.4908 3.67456C33.4908 3.41095 33.4176 3.19527 33.3282 3.19527C33.2388 3.19527 33.1656 3.41095 33.1656 3.67456ZM14.3067 5.27219C14.3067 5.36006 14.3799 5.43195 14.4693 5.43195C14.5587 5.43195 14.6319 5.56983 14.6319 5.73822C14.6319 5.90661 14.7226 6.07404 14.8337 6.11047C14.9805 6.15856 14.9614 6.2493 14.7641 6.44325C14.5583 6.64551 14.1946 6.71006 13.2615 6.71006C12.5493 6.71006 12.0307 6.77732 12.0307 6.86982C12.0307 6.96296 12.5725 7.02959 13.3313 7.02959C14.09 7.02959 14.6319 6.96296 14.6319 6.86982C14.6319 6.78195 14.7782 6.71006 14.9571 6.71006C15.21 6.71006 15.2822 6.6035 15.2822 6.23077C15.2822 5.96716 15.209 5.75148 15.1196 5.75148C15.0302 5.75148 14.9571 5.60769 14.9571 5.43195C14.9571 5.21899 14.8486 5.11243 14.6319 5.11243C14.4531 5.11243 14.3067 5.18432 14.3067 5.27219ZM11.0552 6.5503C11.0552 6.63817 11.2015 6.71006 11.3804 6.71006C11.5592 6.71006 11.7055 6.63817 11.7055 6.5503C11.7055 6.46243 11.5592 6.39053 11.3804 6.39053C11.2015 6.39053 11.0552 6.46243 11.0552 6.5503ZM38.6933 6.48176C38.6933 6.65159 39.1958 7.06841 39.2894 6.97639C39.3405 6.92606 39.2691 6.77381 39.1306 6.63785C38.8726 6.38414 38.6933 6.32024 38.6933 6.48176ZM51.0491 7.18935C51.0491 7.27722 50.8296 7.34911 50.5614 7.34911C50.2931 7.34911 50.0736 7.42101 50.0736 7.50888C50.0736 7.59675 49.9273 7.66864 49.7485 7.66864C49.5318 7.66864 49.4233 7.7752 49.4233 7.98817C49.4233 8.22398 49.3149 8.30769 49.0096 8.30769C48.5532 8.30769 47.7975 8.95074 47.7975 9.33896C47.7975 9.47924 47.6572 9.5858 47.4724 9.5858C47.2936 9.5858 47.1472 9.65769 47.1472 9.74556C47.1472 9.83343 47.0334 9.90532 46.8944 9.90532C46.7553 9.90532 46.2106 10.3367 45.6841 10.8639C45.1575 11.3911 44.6128 11.8225 44.4737 11.8225C44.3347 11.8225 44.2209 11.8944 44.2209 11.9822C44.2209 12.0701 44.104 12.142 43.9609 12.142C43.818 12.142 43.4959 12.3577 43.2454 12.6213C42.9949 12.8849 42.6728 13.1006 42.5299 13.1006C42.3868 13.1006 42.2699 13.1725 42.2699 13.2604C42.2699 13.3482 42.0799 13.4201 41.8474 13.4201C41.5876 13.4201 41.2494 13.6046 40.9693 13.8994C40.7188 14.163 40.4128 14.3787 40.2898 14.3787C40.1665 14.3787 39.9602 14.5225 39.8313 14.6982C39.6936 14.8858 39.4104 15.0178 39.1451 15.0178C38.8966 15.0178 38.6933 15.0896 38.6933 15.1775C38.6933 15.2654 38.5469 15.3373 38.3681 15.3373C38.1893 15.3373 38.0429 15.4092 38.0429 15.497C38.0429 15.5849 37.9127 15.6568 37.7537 15.6568C37.5946 15.6568 37.359 15.8006 37.2301 15.9763C37.1011 16.1521 36.8656 16.2959 36.7064 16.2959C36.5474 16.2959 36.4172 16.3678 36.4172 16.4556C36.4172 16.5435 36.2709 16.6154 36.092 16.6154C35.9132 16.6154 35.7669 16.6873 35.7669 16.7751C35.7669 16.863 35.5474 16.9349 35.2791 16.9349C35.0109 16.9349 34.7914 17.0068 34.7914 17.0947C34.7914 17.1825 34.6451 17.2544 34.4663 17.2544C34.2874 17.2544 34.1411 17.3263 34.1411 17.4142C34.1411 17.5021 33.9948 17.574 33.816 17.574C33.6371 17.574 33.4908 17.6459 33.4908 17.7337C33.4908 17.8216 33.3445 17.8935 33.1656 17.8935C32.9868 17.8935 32.8405 17.9654 32.8405 18.0533C32.8405 18.1411 32.6942 18.213 32.5153 18.213C32.3365 18.213 32.1902 18.2849 32.1902 18.3728C32.1902 18.4606 31.8975 18.5325 31.5399 18.5325C31.1822 18.5325 30.8896 18.6044 30.8896 18.6923C30.8896 18.7802 30.7433 18.8521 30.5644 18.8521C30.3856 18.8521 30.2393 18.924 30.2393 19.0118C30.2393 19.0997 30.0929 19.1716 29.9141 19.1716C29.7353 19.1716 29.589 19.2435 29.589 19.3314C29.589 19.4192 29.4426 19.4911 29.2638 19.4911C29.085 19.4911 28.9387 19.563 28.9387 19.6509C28.9387 19.7388 28.7192 19.8106 28.4509 19.8106C28.1827 19.8106 27.9632 19.8825 27.9632 19.9704C27.9632 20.0583 27.5974 20.1302 27.1503 20.1302C26.7032 20.1302 26.3374 20.2021 26.3374 20.2899C26.3374 20.3778 26.1911 20.4497 26.0123 20.4497C25.8334 20.4497 25.6871 20.5216 25.6871 20.6095C25.6871 20.6973 25.4676 20.7692 25.1994 20.7692C24.9311 20.7692 24.7117 20.8411 24.7117 20.929C24.7117 21.0169 24.4922 21.0888 24.2239 21.0888C23.9557 21.0888 23.7362 21.1607 23.7362 21.2485C23.7362 21.3364 23.5167 21.4083 23.2485 21.4083C22.9802 21.4083 22.7607 21.4802 22.7607 21.568C22.7607 21.6559 22.5413 21.7278 22.273 21.7278C22.0048 21.7278 21.7853 21.7997 21.7853 21.8876C21.7853 21.9807 21.2434 22.0473 20.4847 22.0473C19.7259 22.0473 19.184 22.114 19.184 22.2071C19.184 22.295 18.8183 22.3669 18.3712 22.3669C17.9241 22.3669 17.5583 22.4388 17.5583 22.5266C17.5583 22.6145 17.1925 22.6864 16.7454 22.6864C16.2983 22.6864 15.9325 22.7583 15.9325 22.8462C15.9325 22.9393 15.3906 23.0059 14.6319 23.0059C13.8732 23.0059 13.3313 23.0725 13.3313 23.1657C13.3313 23.2671 12.0848 23.3254 9.91718 23.3254C7.74954 23.3254 6.50307 23.2671 6.50307 23.1657C6.50307 23.0769 6.06948 23.0059 5.52761 23.0059H4.55215V23.645C4.55215 24.1775 4.60629 24.284 4.8773 24.284C5.05614 24.284 5.20245 24.3559 5.20245 24.4438C5.20245 24.5317 5.42193 24.6035 5.69018 24.6035C5.95844 24.6035 6.17791 24.6754 6.17791 24.7633C6.17791 24.8609 6.93666 24.9231 8.12883 24.9231C9.32101 24.9231 10.0798 24.9852 10.0798 25.0828C10.0798 25.1707 9.86028 25.2426 9.59202 25.2426C9.32377 25.2426 9.10429 25.3145 9.10429 25.4024C9.10429 25.4902 8.88482 25.5621 8.61656 25.5621C8.34831 25.5621 8.12883 25.634 8.12883 25.7219C8.12883 25.8098 7.90936 25.8817 7.6411 25.8817C7.37285 25.8817 7.15337 25.9535 7.15337 26.0414C7.15337 26.1293 7.00706 26.2012 6.82822 26.2012C6.64939 26.2012 6.50307 26.2731 6.50307 26.3609C6.50307 26.4488 6.28359 26.5207 6.01534 26.5207C5.74709 26.5207 5.52761 26.5926 5.52761 26.6805C5.52761 26.7806 4.49801 26.8402 2.7638 26.8402C1.24371 26.8402 0 26.8813 0 26.9315C0 27.119 0.473584 27.4793 0.72005 27.4793C0.867019 27.4793 0.97546 27.6148 0.97546 27.7988C0.97546 28.0651 1.0839 28.1183 1.62577 28.1183C1.98344 28.1183 2.27607 28.1902 2.27607 28.2781C2.27607 28.374 2.92638 28.4379 3.90184 28.4379C4.8773 28.4379 5.52761 28.374 5.52761 28.2781C5.52761 28.1902 5.8934 28.1183 6.34049 28.1183C6.78758 28.1183 7.15337 28.0464 7.15337 27.9586C7.15337 27.8707 7.44601 27.7988 7.80368 27.7988C8.16135 27.7988 8.45399 27.7269 8.45399 27.6391C8.45399 27.5512 8.81979 27.4793 9.26687 27.4793C9.71396 27.4793 10.0798 27.4074 10.0798 27.3195C10.0798 27.2317 10.2992 27.1598 10.5675 27.1598C10.8357 27.1598 11.0552 27.0879 11.0552 27C11.0552 26.9088 11.5429 26.8402 12.1933 26.8402C12.8192 26.8402 13.3313 26.8794 13.3313 26.9273C13.3313 27.092 12.533 27.7988 12.3472 27.7988C12.2448 27.7988 11.9561 28.0145 11.7055 28.2781C11.4254 28.5729 11.0872 28.7574 10.8274 28.7574C10.595 28.7574 10.4049 28.8293 10.4049 28.9172C10.4049 29.005 10.2586 29.0769 10.0798 29.0769C9.90092 29.0769 9.7546 29.1488 9.7546 29.2367C9.7546 29.3246 9.60828 29.3964 9.42945 29.3964C9.25061 29.3964 9.10429 29.4683 9.10429 29.5562C9.10429 29.6441 8.88482 29.716 8.61656 29.716C8.34831 29.716 8.12883 29.7879 8.12883 29.8757C8.12883 29.9636 7.98252 30.0355 7.80368 30.0355C7.62485 30.0355 7.47853 30.1074 7.47853 30.1953C7.47853 30.2884 6.93666 30.355 6.17791 30.355C5.41917 30.355 4.8773 30.4216 4.8773 30.5148C4.8773 30.6159 6.06948 30.6746 8.12883 30.6746C10.1882 30.6746 11.3804 30.6159 11.3804 30.5148C11.3804 30.4138 12.5184 30.355 14.4693 30.355C16.4202 30.355 17.5583 30.2962 17.5583 30.1953C17.5583 30.1064 17.9919 30.0355 18.5337 30.0355C19.0756 30.0355 19.5092 29.9646 19.5092 29.8757C19.5092 29.7879 19.875 29.716 20.3221 29.716C20.7692 29.716 21.135 29.6441 21.135 29.5562C21.135 29.4683 21.4276 29.3964 21.7853 29.3964C22.1429 29.3964 22.4356 29.3246 22.4356 29.2367C22.4356 29.1488 22.8014 29.0769 23.2485 29.0769C23.6956 29.0769 24.0613 29.005 24.0613 28.9172C24.0613 28.8283 24.4949 28.7574 25.0368 28.7574C25.5787 28.7574 26.0123 28.6865 26.0123 28.5976C26.0123 28.5098 26.2317 28.4379 26.5 28.4379C26.7683 28.4379 26.9877 28.366 26.9877 28.2781C26.9877 28.1902 27.2072 28.1183 27.4755 28.1183C27.7437 28.1183 27.9632 28.0464 27.9632 27.9586C27.9632 27.8707 28.1827 27.7988 28.4509 27.7988C28.7192 27.7988 28.9387 27.7269 28.9387 27.6391C28.9387 27.5512 29.085 27.4793 29.2638 27.4793C29.4426 27.4793 29.589 27.4074 29.589 27.3195C29.589 27.2317 29.7353 27.1598 29.9141 27.1598C30.0929 27.1598 30.2393 27.0879 30.2393 27C30.2393 26.9121 30.5319 26.8402 30.8896 26.8402C31.2472 26.8402 31.5399 26.7683 31.5399 26.6805C31.5399 26.5926 31.7594 26.5207 32.0276 26.5207C32.2959 26.5207 32.5153 26.4488 32.5153 26.3609C32.5153 26.2731 32.6617 26.2012 32.8405 26.2012C33.0193 26.2012 33.1656 26.1293 33.1656 26.0414C33.1656 25.9535 33.312 25.8817 33.4908 25.8817C33.6696 25.8817 33.816 25.8098 33.816 25.7219C33.816 25.634 33.9623 25.5621 34.1411 25.5621C34.3199 25.5621 34.4663 25.4902 34.4663 25.4024C34.4663 25.3145 34.6857 25.2426 34.954 25.2426C35.2222 25.2426 35.4417 25.1707 35.4417 25.0828C35.4417 24.995 35.588 24.9231 35.7669 24.9231C35.9457 24.9231 36.092 24.8512 36.092 24.7633C36.092 24.6754 36.2222 24.6035 36.3812 24.6035C36.5404 24.6035 36.776 24.4598 36.9049 24.284C37.0338 24.1083 37.2694 23.9645 37.4286 23.9645C37.5876 23.9645 37.7178 23.8926 37.7178 23.8047C37.7178 23.7169 37.9373 23.645 38.2055 23.645C38.4738 23.645 38.6933 23.5731 38.6933 23.4852C38.6933 23.3973 38.8396 23.3254 39.0184 23.3254C39.1972 23.3254 39.3436 23.2535 39.3436 23.1657C39.3436 23.0778 39.4605 23.0059 39.6035 23.0059C39.7464 23.0059 40.0685 22.7902 40.319 22.5266C40.6416 22.1873 40.9266 22.0473 41.2945 22.0473C41.6624 22.0473 41.9474 21.9074 42.2699 21.568C42.5205 21.3044 42.8092 21.0888 42.9116 21.0888C43.2256 21.0888 43.8957 20.3243 43.8957 19.9663C43.8957 19.7803 43.7832 19.5175 43.6457 19.3823C43.4207 19.1612 43.3659 19.1705 43.0983 19.4737C42.9347 19.659 42.6814 19.8106 42.5354 19.8106C42.3894 19.8106 42.2699 19.8825 42.2699 19.9704C42.2699 20.0693 41.4029 20.1302 39.9939 20.1302C38.5848 20.1302 37.7178 20.0693 37.7178 19.9704C37.7178 19.8825 37.848 19.8106 38.007 19.8106C38.1662 19.8106 38.4018 19.6669 38.5307 19.4911C38.6596 19.3154 38.8952 19.1716 39.0543 19.1716C39.2133 19.1716 39.3436 19.0997 39.3436 19.0118C39.3436 18.924 39.4899 18.8521 39.6687 18.8521C39.8475 18.8521 39.9939 18.7802 39.9939 18.6923C39.9939 18.6044 40.1972 18.5325 40.4457 18.5325C40.711 18.5325 40.9942 18.4006 41.1319 18.213C41.2608 18.0373 41.4803 17.8935 41.6196 17.8935C41.759 17.8935 41.9784 17.7497 42.1074 17.574C42.2363 17.3982 42.4719 17.2544 42.631 17.2544C42.79 17.2544 42.9202 17.1825 42.9202 17.0947C42.9202 17.0068 43.1088 16.9349 43.3394 16.9349C43.6159 16.9349 43.9713 16.7175 44.3834 16.2959C44.7956 15.8742 45.151 15.6568 45.4275 15.6568C45.7382 15.6568 45.8466 15.5742 45.8466 15.3373C45.8466 15.1003 45.9551 15.0178 46.2658 15.0178C46.5423 15.0178 46.8977 14.8003 47.3098 14.3787C47.6535 14.0272 48.05 13.7396 48.1913 13.7396C48.3324 13.7396 48.4479 13.6678 48.4479 13.5799C48.4479 13.492 48.6673 13.4201 48.9356 13.4201C49.3149 13.4201 49.4233 13.3492 49.4233 13.1006C49.4233 12.9143 49.5318 12.7811 49.6833 12.7811C49.8262 12.7811 50.1482 12.5654 50.3988 12.3018C50.6493 12.0382 50.9364 11.8225 51.0366 11.8225C51.1367 11.8225 51.6196 11.4287 52.1094 10.9473L53 10.072V8.87038C53 7.7752 52.9712 7.66864 52.6748 7.66864C52.496 7.66864 52.3497 7.59675 52.3497 7.50888C52.3497 7.42101 52.2034 7.34911 52.0245 7.34911C51.8457 7.34911 51.6994 7.27722 51.6994 7.18935C51.6994 7.10148 51.5531 7.02959 51.3742 7.02959C51.1954 7.02959 51.0491 7.10148 51.0491 7.18935ZM26.6626 7.50888C26.6626 7.59675 26.9552 7.66864 27.3129 7.66864C27.6706 7.66864 27.9632 7.74053 27.9632 7.8284C27.9632 7.91627 28.1095 7.98817 28.2883 7.98817C28.5355 7.98817 28.6135 8.09473 28.6135 8.43215C28.6135 8.69288 28.4792 8.97119 28.2883 9.10651C28.1095 9.2332 27.9632 9.43386 27.9632 9.55257C27.9632 9.8451 27.5566 10.2249 27.2431 10.2249C27.1027 10.2249 26.9877 10.2967 26.9877 10.3846C26.9877 10.4725 27.1027 10.5444 27.2431 10.5444C27.541 10.5444 27.9632 10.9192 27.9632 11.1834C27.9632 11.4477 28.3854 11.8225 28.6832 11.8225C28.8266 11.8225 28.9387 11.9568 28.9387 12.1287C28.9387 12.2971 29.0281 12.4643 29.1373 12.5C29.2643 12.5416 29.1789 12.7192 28.9008 12.9926C28.5927 13.2953 28.2974 13.4201 27.8892 13.4201C27.5722 13.4201 27.3129 13.492 27.3129 13.5799C27.3129 13.6678 27.0202 13.7396 26.6626 13.7396C26.1207 13.7396 26.0123 13.7928 26.0123 14.0592C26.0123 14.336 26.1207 14.3787 26.8252 14.3787C27.2722 14.3787 27.638 14.3068 27.638 14.2189C27.638 14.1311 27.7683 14.0592 27.9273 14.0592C28.0864 14.0592 28.322 13.9154 28.4509 13.7396C28.5798 13.5639 28.784 13.4201 28.9048 13.4201C29.3121 13.4201 29.589 12.9675 29.589 12.3018C29.589 11.6595 29.3139 11.1834 28.9429 11.1834C28.6728 11.1834 27.9632 10.4365 27.9632 10.1522C27.9632 10.0164 28.0762 9.90532 28.2144 9.90532C28.5091 9.90532 29.2638 9.20588 29.2638 8.93285C29.2638 8.82932 29.4181 8.613 29.6067 8.45228C29.9153 8.18931 29.9247 8.13547 29.6997 7.91435C29.5621 7.77919 29.1884 7.66864 28.8689 7.66864C28.5496 7.66864 28.2883 7.59675 28.2883 7.50888C28.2883 7.42101 27.9225 7.34911 27.4755 7.34911C27.0284 7.34911 26.6626 7.42101 26.6626 7.50888ZM24.2646 9.18575C24.0212 9.45735 23.996 9.90532 24.2239 9.90532C24.3181 9.90532 24.3865 10.415 24.3865 11.1149C24.3865 12.3588 24.2041 12.7811 23.6665 12.7811C23.526 12.7811 23.411 12.853 23.411 12.9408C23.411 13.0287 23.1916 13.1006 22.9233 13.1006C22.6551 13.1006 22.4356 13.1725 22.4356 13.2604C22.4356 13.3482 22.7282 13.4201 23.0859 13.4201C23.4436 13.4201 23.7362 13.3482 23.7362 13.2604C23.7362 13.1725 23.8825 13.1006 24.0613 13.1006C24.2402 13.1006 24.3865 13.0287 24.3865 12.9408C24.3865 12.853 24.4597 12.7811 24.5491 12.7811C24.6385 12.7811 24.7117 12.9249 24.7117 13.1006C24.7117 13.2763 24.7848 13.4201 24.8742 13.4201C24.9637 13.4201 25.0368 13.5639 25.0368 13.7396C25.0368 13.9154 25.11 14.0592 25.1994 14.0592C25.2888 14.0592 25.362 14.1721 25.362 14.3102C25.362 14.5524 25.7286 15.0178 25.9194 15.0178C25.9705 15.0178 26.0123 14.874 26.0123 14.6982C26.0123 14.5225 25.9391 14.3787 25.8497 14.3787C25.7603 14.3787 25.6871 14.163 25.6871 13.8994C25.6871 13.6358 25.614 13.4201 25.5245 13.4201C25.4351 13.4201 25.362 13.2044 25.362 12.9408C25.362 12.5681 25.4341 12.4615 25.6871 12.4615C25.8991 12.4615 26.0123 12.355 26.0123 12.1553C26.0123 11.9869 26.1038 11.8171 26.2155 11.7778C26.3337 11.7364 26.3584 11.6472 26.2745 11.5648C26.1906 11.4823 26.0999 11.5066 26.0578 11.6228C26.0178 11.7327 25.7718 11.8225 25.511 11.8225C25.0503 11.8225 25.0368 11.7996 25.0368 11.0237C25.0368 10.5843 24.9637 10.2249 24.8742 10.2249C24.7848 10.2249 24.7117 9.93728 24.7117 9.5858C24.7117 8.9124 24.5993 8.81207 24.2646 9.18575ZM9.59885 10.18C9.42376 10.3736 9.41319 10.4592 9.55821 10.5067C9.79687 10.5848 9.82906 12.142 9.59202 12.142C9.50261 12.142 9.42945 12.5425 9.42945 13.0321C9.42945 13.9481 9.19924 14.3787 8.7094 14.3787C8.56893 14.3787 8.45399 14.4506 8.45399 14.5385C8.45399 14.6263 8.60031 14.6982 8.77914 14.6982C8.99586 14.6982 9.10429 14.8048 9.10429 15.0178C9.10429 15.1935 9.03114 15.3373 8.94172 15.3373C8.8523 15.3373 8.77914 15.553 8.77914 15.8166C8.77914 16.0802 8.70598 16.2959 8.61656 16.2959C8.52715 16.2959 8.45399 16.4396 8.45399 16.6154C8.45399 16.7911 8.38083 16.9349 8.29141 16.9349C8.20199 16.9349 8.12883 17.1506 8.12883 17.4142C8.12883 17.6778 8.05567 17.8935 7.96626 17.8935C7.87684 17.8935 7.80368 18.0373 7.80368 18.213C7.80368 18.3888 7.73052 18.5325 7.6411 18.5325C7.55169 18.5325 7.47853 18.6044 7.47853 18.6923C7.47853 18.7802 7.69801 18.8521 7.96626 18.8521C8.23451 18.8521 8.45399 18.924 8.45399 19.0118C8.45399 19.0997 8.74663 19.1716 9.10429 19.1716C9.46196 19.1716 9.7546 19.2435 9.7546 19.3314C9.7546 19.4202 10.1882 19.4911 10.7301 19.4911C11.2719 19.4911 11.7055 19.5621 11.7055 19.6509C11.7055 19.7397 12.1391 19.8106 12.681 19.8106H13.6564V19.0118C13.6564 18.5725 13.7296 18.213 13.819 18.213C13.9166 18.213 13.9816 17.574 13.9816 16.6154V15.0178H12.1933C11.1094 15.0178 10.4049 15.0807 10.4049 15.1775C10.4049 15.2654 10.5512 15.3373 10.7301 15.3373C10.9089 15.3373 11.0552 15.4092 11.0552 15.497C11.0552 15.5849 11.2015 15.6568 11.3804 15.6568C11.5592 15.6568 11.7055 15.7287 11.7055 15.8166C11.7055 15.9044 11.925 15.9763 12.1933 15.9763C12.4615 15.9763 12.681 16.0482 12.681 16.1361C12.681 16.224 12.9005 16.2959 13.1687 16.2959C13.6293 16.2959 13.6564 16.3313 13.6564 16.9349C13.6564 17.2864 13.5833 17.574 13.4939 17.574C13.4044 17.574 13.3313 17.7178 13.3313 17.8935C13.3313 18.0692 13.2581 18.213 13.1687 18.213C13.0793 18.213 13.0061 18.326 13.0061 18.464C13.0061 18.6022 12.9016 18.8179 12.7738 18.9433C12.5113 19.2015 11.3804 19.2569 11.3804 19.0118C11.3804 18.924 11.0877 18.8521 10.7301 18.8521C10.3724 18.8521 10.0798 18.7802 10.0798 18.6923C10.0798 18.6044 9.89165 18.5325 9.66177 18.5325C9.18737 18.5325 8.5673 18.0427 8.90254 17.933C9.01358 17.8965 9.10429 17.6572 9.10429 17.4009C9.10429 17.1447 9.17745 16.9349 9.26687 16.9349C9.35629 16.9349 9.42945 16.7192 9.42945 16.4556C9.42945 16.192 9.50261 15.9763 9.59202 15.9763C9.68144 15.9763 9.7546 15.7667 9.7546 15.5103C9.7546 15.254 9.84613 15.0078 9.95782 14.9633C10.1113 14.9022 10.1014 14.8372 9.91718 14.6982C9.73298 14.5592 9.72306 14.4942 9.87653 14.4332C10.0217 14.3752 10.0798 13.8536 10.0798 12.608C10.0798 11.5518 10.1438 10.8639 10.2423 10.8639C10.3317 10.8639 10.4049 10.9358 10.4049 11.0237C10.4049 11.1115 10.6244 11.1834 10.8926 11.1834C11.1609 11.1834 11.3804 11.2553 11.3804 11.3432C11.3804 11.4311 11.5998 11.503 11.8681 11.503C12.1363 11.503 12.3558 11.5749 12.3558 11.6627C12.3558 11.7559 12.8977 11.8225 13.6564 11.8225C14.8486 11.8225 14.9571 11.7958 14.9571 11.503C14.9571 11.2101 14.8486 11.1834 13.6564 11.1834C12.8977 11.1834 12.3558 11.1168 12.3558 11.0237C12.3558 10.9358 11.99 10.8639 11.5429 10.8639C11.0959 10.8639 10.7301 10.792 10.7301 10.7041C10.7301 10.6163 10.5837 10.5444 10.4049 10.5444C10.1882 10.5444 10.0798 10.4378 10.0798 10.2249C10.0798 9.84062 9.9188 9.8256 9.59885 10.18ZM16.786 10.4639C16.6744 10.5886 16.5828 10.8016 16.5828 10.9371C16.5828 11.0726 16.5097 11.1834 16.4202 11.1834C16.3308 11.1834 16.2577 11.3272 16.2577 11.503C16.2577 11.6787 16.1845 11.8225 16.0951 11.8225C16.0057 11.8225 15.9325 11.9663 15.9325 12.142C15.9325 12.3178 15.8594 12.4615 15.7699 12.4615C15.6805 12.4615 15.6074 12.6772 15.6074 12.9408C15.6074 13.2044 15.5342 13.4201 15.4448 13.4201C15.3554 13.4201 15.2822 13.6358 15.2822 13.8994C15.2822 14.368 15.2642 14.3787 14.4693 14.3787C14.0222 14.3787 13.6564 14.4506 13.6564 14.5385C13.6564 14.6263 13.9491 14.6982 14.3067 14.6982C14.6644 14.6982 14.9571 14.7701 14.9571 14.858C14.9571 14.9548 15.6615 15.0178 16.7454 15.0178C18.4253 15.0178 18.5337 15.0371 18.5337 15.3373C18.5337 15.513 18.6069 15.6568 18.6963 15.6568C18.7857 15.6568 18.8589 15.9444 18.8589 16.2959C18.8589 16.8994 18.886 16.9349 19.3466 16.9349C19.93 16.9349 20.019 16.4972 19.5092 16.1361C19.3304 16.0094 19.184 15.7779 19.184 15.6215C19.184 15.4652 19.1109 15.3373 19.0215 15.3373C18.9321 15.3373 18.8589 15.1935 18.8589 15.0178C18.8589 14.7749 18.9673 14.6982 19.3107 14.6982C19.576 14.6982 19.8592 14.5663 19.9969 14.3787C20.1259 14.203 20.3614 14.0592 20.5206 14.0592C20.6796 14.0592 20.8098 13.9873 20.8098 13.8994C20.8098 13.8115 20.9561 13.7396 21.135 13.7396C21.3517 13.7396 21.4601 13.8462 21.4601 14.0592C21.4601 14.2349 21.5333 14.3787 21.6227 14.3787C21.7121 14.3787 21.7853 14.5944 21.7853 14.858C21.7853 15.1216 21.8584 15.3373 21.9479 15.3373C22.0373 15.3373 22.1104 15.6249 22.1104 15.9763C22.1104 16.3278 22.1836 16.6154 22.273 16.6154C22.3624 16.6154 22.4356 16.2559 22.4356 15.8166C22.4356 15.3772 22.3624 15.0178 22.273 15.0178C22.1836 15.0178 22.1104 14.6741 22.1104 14.2542C22.1104 13.674 22.0324 13.4355 21.7853 13.2604C21.5944 13.125 21.4601 12.8467 21.4601 12.586C21.4601 12.3419 21.387 12.142 21.2975 12.142C21.2081 12.142 21.135 11.9982 21.135 11.8225C21.135 11.6467 21.0618 11.503 20.9724 11.503C20.883 11.503 20.8098 11.3181 20.8098 11.0922C20.8098 10.568 20.4606 10.2249 19.9272 10.2249C19.4112 10.2249 19.3575 10.6859 19.8344 11.0237C20.0132 11.1504 20.1595 11.3819 20.1595 11.5383C20.1595 11.7159 20.2813 11.8225 20.4847 11.8225C20.7557 11.8225 20.8098 11.929 20.8098 12.4615C20.8098 12.813 20.883 13.1006 20.9724 13.1006C21.0618 13.1006 21.135 13.1725 21.135 13.2604C21.135 13.3482 20.9887 13.4201 20.8098 13.4201C20.631 13.4201 20.4847 13.492 20.4847 13.5799C20.4847 13.6678 20.192 13.7396 19.8344 13.7396C19.4767 13.7396 19.184 13.8115 19.184 13.8994C19.184 14.1923 18.6866 14.064 18.2826 13.667C18.0631 13.4513 17.8834 13.0918 17.8834 12.8681C17.8834 12.6445 17.8103 12.4615 17.7209 12.4615C17.6314 12.4615 17.5583 12.2459 17.5583 11.9822C17.5583 11.7186 17.4851 11.503 17.3957 11.503C17.3063 11.503 17.2331 11.3592 17.2331 11.1834C17.2331 11.0077 17.3063 10.8639 17.3957 10.8639C17.4851 10.8639 17.5583 10.7201 17.5583 10.5444C17.5583 10.1696 17.0932 10.121 16.786 10.4639ZM17.2331 12.3018C17.2331 12.5654 17.3063 12.7811 17.3957 12.7811C17.4851 12.7811 17.5583 12.9249 17.5583 13.1006C17.5583 13.2763 17.6314 13.4201 17.7209 13.4201C17.8103 13.4201 17.8834 13.6358 17.8834 13.8994V14.3787H16.7454C16.0951 14.3787 15.6074 14.3102 15.6074 14.2189C15.6074 14.1311 15.6805 14.0592 15.7699 14.0592C15.8594 14.0592 15.9325 13.9154 15.9325 13.7396C15.9325 13.5639 16.0057 13.4201 16.0951 13.4201C16.1845 13.4201 16.2577 13.2763 16.2577 13.1006C16.2577 12.9249 16.3308 12.7811 16.4202 12.7811C16.5097 12.7811 16.5828 12.6702 16.5828 12.5347C16.5828 12.2727 16.9076 11.8388 17.1112 11.8286C17.1783 11.8252 17.2331 12.0382 17.2331 12.3018ZM14.9571 16.1361C14.9571 16.5754 15.0302 16.9349 15.1196 16.9349C15.209 16.9349 15.2822 16.5754 15.2822 16.1361C15.2822 15.6967 15.209 15.3373 15.1196 15.3373C15.0302 15.3373 14.9571 15.6967 14.9571 16.1361ZM46.8221 23.4852C46.8221 23.5731 46.6026 23.645 46.3344 23.645C46.0661 23.645 45.8466 23.7169 45.8466 23.8047C45.8466 23.8926 45.7164 23.9645 45.5574 23.9645C45.3982 23.9645 45.1627 24.1083 45.0337 24.284C44.9048 24.4598 44.6692 24.6035 44.5101 24.6035C44.3293 24.6035 44.2209 24.7232 44.2209 24.9231C44.2209 25.1717 44.1124 25.2426 43.7331 25.2426C43.4649 25.2426 43.2454 25.3145 43.2454 25.4024C43.2454 25.4902 43.1285 25.5621 42.9854 25.5621C42.8425 25.5621 42.5205 25.7778 42.2699 26.0414C42.0194 26.305 41.6973 26.5207 41.5544 26.5207C41.4114 26.5207 41.2945 26.5926 41.2945 26.6805C41.2945 26.7683 41.1482 26.8402 40.9693 26.8402C40.7905 26.8402 40.6442 26.9121 40.6442 27C40.6442 27.0879 40.4979 27.1598 40.319 27.1598C40.1402 27.1598 39.9939 27.2317 39.9939 27.3195C39.9939 27.4074 39.8475 27.4793 39.6687 27.4793C39.4899 27.4793 39.3436 27.5512 39.3436 27.6391C39.3436 27.7269 39.1972 27.7988 39.0184 27.7988C38.8396 27.7988 38.6933 27.8707 38.6933 27.9586C38.6933 28.0464 38.563 28.1183 38.404 28.1183C38.2449 28.1183 38.0093 28.2621 37.8804 28.4379C37.7171 28.6604 37.4595 28.7574 37.0316 28.7574C36.6937 28.7574 36.4172 28.8293 36.4172 28.9172C36.4172 29.005 36.2138 29.0769 35.9654 29.0769C35.7001 29.0769 35.4168 29.2089 35.2791 29.3964C35.1414 29.584 34.8582 29.716 34.5929 29.716C34.3445 29.716 34.1411 29.7879 34.1411 29.8757C34.1411 29.9636 33.9948 30.0355 33.816 30.0355C33.6371 30.0355 33.4908 30.1074 33.4908 30.1953C33.4908 30.2831 33.125 30.355 32.6779 30.355C32.2308 30.355 31.865 30.4269 31.865 30.5148C31.865 30.6027 31.7187 30.6746 31.5399 30.6746C31.361 30.6746 31.2147 30.7464 31.2147 30.8343C31.2147 30.9222 30.9221 30.9941 30.5644 30.9941C30.2067 30.9941 29.9141 31.066 29.9141 31.1538C29.9141 31.2417 29.6946 31.3136 29.4264 31.3136C29.1581 31.3136 28.9387 31.3855 28.9387 31.4734C28.9387 31.5612 28.7192 31.6331 28.4509 31.6331C28.1827 31.6331 27.9632 31.705 27.9632 31.7929C27.9632 31.8841 27.4755 31.9527 26.8252 31.9527C26.1748 31.9527 25.6871 32.0212 25.6871 32.1124C25.6871 32.2003 25.3945 32.2722 25.0368 32.2722C24.6791 32.2722 24.3865 32.3441 24.3865 32.4319C24.3865 32.5198 24.0207 32.5917 23.5736 32.5917C23.1265 32.5917 22.7607 32.6636 22.7607 32.7515C22.7607 32.8393 22.3949 32.9112 21.9479 32.9112C21.5008 32.9112 21.135 32.9831 21.135 33.071C21.135 33.1589 20.7692 33.2308 20.3221 33.2308C19.875 33.2308 19.5092 33.3027 19.5092 33.3905C19.5092 33.4794 19.0756 33.5503 18.5337 33.5503C17.9919 33.5503 17.5583 33.6212 17.5583 33.7101C17.5583 33.8107 16.4744 33.8698 14.6319 33.8698C12.7894 33.8698 11.7055 33.9289 11.7055 34.0296C11.7055 34.1175 11.3397 34.1893 10.8926 34.1893C10.4456 34.1893 10.0798 34.2612 10.0798 34.3491C10.0798 34.4459 10.7842 34.5089 11.8681 34.5089C12.952 34.5089 13.6564 34.5718 13.6564 34.6686C13.6564 34.768 14.5778 34.8284 16.0951 34.8284C17.6124 34.8284 18.5337 34.8888 18.5337 34.9882C18.5337 35.0898 19.8344 35.1479 22.1104 35.1479C24.3865 35.1479 25.6871 35.0898 25.6871 34.9882C25.6871 34.8934 26.2833 34.8284 27.1503 34.8284C28.0173 34.8284 28.6135 34.7634 28.6135 34.6686C28.6135 34.5808 28.9793 34.5089 29.4264 34.5089C29.8735 34.5089 30.2393 34.437 30.2393 34.3491C30.2393 34.2612 30.5319 34.1893 30.8896 34.1893C31.2472 34.1893 31.5399 34.1175 31.5399 34.0296C31.5399 33.9348 32.136 33.8698 33.0031 33.8698C33.8701 33.8698 34.4663 33.8048 34.4663 33.7101C34.4663 33.6222 34.6857 33.5503 34.954 33.5503C35.2222 33.5503 35.4417 33.4784 35.4417 33.3905C35.4417 33.3027 35.7344 33.2308 36.092 33.2308C36.4497 33.2308 36.7423 33.1589 36.7423 33.071C36.7423 32.9831 36.9618 32.9112 37.2301 32.9112C37.4983 32.9112 37.7178 32.8393 37.7178 32.7515C37.7178 32.6636 37.9373 32.5917 38.2055 32.5917C38.4738 32.5917 38.6933 32.5198 38.6933 32.4319C38.6933 32.3441 38.9859 32.2722 39.3436 32.2722C39.7012 32.2722 39.9939 32.2003 39.9939 32.1124C39.9939 32.0236 40.4275 31.9527 40.9693 31.9527C41.5112 31.9527 41.9448 31.8817 41.9448 31.7929C41.9448 31.705 42.0911 31.6331 42.2699 31.6331C42.4488 31.6331 42.5951 31.5612 42.5951 31.4734C42.5951 31.3855 42.8877 31.3136 43.2454 31.3136C43.6031 31.3136 43.8957 31.2417 43.8957 31.1538C43.8957 31.066 44.042 30.9941 44.2209 30.9941C44.3997 30.9941 44.546 30.9222 44.546 30.8343C44.546 30.7464 44.6923 30.6746 44.8712 30.6746C45.05 30.6746 45.1963 30.6027 45.1963 30.5148C45.1963 30.4172 44.4376 30.355 43.2454 30.355C42.0532 30.355 41.2945 30.2929 41.2945 30.1953C41.2945 30.1074 41.4247 30.0355 41.5837 30.0355C41.7429 30.0355 41.9784 29.8917 42.1074 29.716C42.2363 29.5402 42.4558 29.3964 42.5951 29.3964C42.7344 29.3964 42.9539 29.2527 43.0828 29.0769C43.2121 28.9007 43.5037 28.7574 43.7331 28.7574C43.9625 28.7574 44.2542 28.6141 44.3834 28.4379C44.5124 28.2621 44.717 28.1183 44.8385 28.1183C44.9599 28.1183 45.3404 27.8308 45.6841 27.4793C46.0284 27.127 46.4638 26.8402 46.6541 26.8402C47.0168 26.8402 47.7975 26.183 47.7975 25.8775C47.7975 25.6168 48.2219 25.2426 48.5176 25.2426C48.6646 25.2426 48.773 25.1071 48.773 24.9231C48.773 24.7473 48.8462 24.6035 48.9356 24.6035C49.1824 24.6035 49.1299 23.813 48.8658 23.5537C48.5986 23.2909 46.8221 23.2313 46.8221 23.4852ZM43.8957 34.3491C43.8957 34.437 43.7655 34.5089 43.6065 34.5089C43.4473 34.5089 43.2117 34.6527 43.0828 34.8284C42.9539 35.0041 42.7183 35.1479 42.5592 35.1479C42.4002 35.1479 42.2699 35.2198 42.2699 35.3077C42.2699 35.3956 42.1397 35.4675 41.9807 35.4675C41.8216 35.4675 41.586 35.6112 41.4571 35.787C41.3281 35.9627 41.1087 36.1065 40.9693 36.1065C40.83 36.1065 40.6105 36.2503 40.4816 36.426C40.3527 36.6018 40.1171 36.7456 39.9579 36.7456C39.7989 36.7456 39.6687 36.8175 39.6687 36.9053C39.6687 36.9932 39.4492 37.0651 39.181 37.0651C38.9127 37.0651 38.6933 37.137 38.6933 37.2248C38.6933 37.3127 38.5469 37.3846 38.3681 37.3846C38.1893 37.3846 38.0429 37.4565 38.0429 37.5444C38.0429 37.6322 37.9127 37.7041 37.7537 37.7041C37.5946 37.7041 37.359 37.8479 37.2301 38.0237C37.1011 38.1994 36.8656 38.3432 36.7064 38.3432C36.5474 38.3432 36.4172 38.4151 36.4172 38.503C36.4172 38.5908 36.1977 38.6627 35.9294 38.6627C35.6612 38.6627 35.4417 38.7346 35.4417 38.8225C35.4417 38.9104 35.1491 38.9822 34.7914 38.9822C34.4337 38.9822 34.1411 39.0541 34.1411 39.142C34.1411 39.2299 33.9948 39.3018 33.816 39.3018C33.6371 39.3018 33.4908 39.3737 33.4908 39.4615C33.4908 39.5494 33.2713 39.6213 33.0031 39.6213C32.7348 39.6213 32.5153 39.6932 32.5153 39.7811C32.5153 39.8689 32.2959 39.9408 32.0276 39.9408C31.7594 39.9408 31.5399 40.0127 31.5399 40.1006C31.5399 40.1885 31.2472 40.2604 30.8896 40.2604C30.5319 40.2604 30.2393 40.3322 30.2393 40.4201C30.2393 40.5113 29.7515 40.5799 29.1012 40.5799C28.4509 40.5799 27.9632 40.6484 27.9632 40.7396C27.9632 40.8275 27.5974 40.8994 27.1503 40.8994C26.7032 40.8994 26.3374 40.9713 26.3374 41.0592C26.3374 41.148 25.9038 41.2189 25.362 41.2189C24.8201 41.2189 24.3865 41.2899 24.3865 41.3787C24.3865 41.4675 23.9529 41.5385 23.411 41.5385C22.8692 41.5385 22.4356 41.6094 22.4356 41.6982C22.4356 41.8014 20.5388 41.858 17.0706 41.858C13.6023 41.858 11.7055 41.9145 11.7055 42.0177C11.7055 42.1056 11.8357 42.1775 11.9947 42.1775C12.1539 42.1775 12.3895 42.3213 12.5184 42.497C12.6473 42.6728 12.8668 42.8166 13.0061 42.8166C13.1455 42.8166 13.3649 42.9604 13.4939 43.1361C13.6316 43.3237 13.9148 43.4556 14.1801 43.4556C14.4285 43.4556 14.6319 43.5275 14.6319 43.6154C14.6319 43.7033 14.7782 43.7751 14.9571 43.7751C15.1359 43.7751 15.2822 43.847 15.2822 43.9349C15.2822 44.0261 15.7699 44.0947 16.4202 44.0947C17.0706 44.0947 17.5583 44.1632 17.5583 44.2544C17.5583 44.3503 18.2086 44.4142 19.184 44.4142C20.1595 44.4142 20.8098 44.4781 20.8098 44.574C20.8098 44.6628 21.2434 44.7337 21.7853 44.7337C22.3271 44.7337 22.7607 44.6628 22.7607 44.574C22.7607 44.4781 23.411 44.4142 24.3865 44.4142C25.362 44.4142 26.0123 44.3503 26.0123 44.2544C26.0123 44.1576 26.7167 44.0947 27.8006 44.0947C28.8845 44.0947 29.589 44.0317 29.589 43.9349C29.589 43.847 29.8816 43.7751 30.2393 43.7751C30.5969 43.7751 30.8896 43.7033 30.8896 43.6154C30.8896 43.5275 31.109 43.4556 31.3773 43.4556C31.6456 43.4556 31.865 43.3837 31.865 43.2959C31.865 43.208 32.0845 43.1361 32.3528 43.1361C32.621 43.1361 32.8405 43.0642 32.8405 42.9763C32.8405 42.8885 33.06 42.8166 33.3282 42.8166C33.5965 42.8166 33.816 42.7447 33.816 42.6568C33.816 42.5689 33.9623 42.497 34.1411 42.497C34.3199 42.497 34.4663 42.4251 34.4663 42.3373C34.4663 42.2494 34.7589 42.1775 35.1166 42.1775C35.4742 42.1775 35.7669 42.1056 35.7669 42.0177C35.7669 41.9299 35.8838 41.858 36.0268 41.858C36.1697 41.858 36.4918 41.6423 36.7423 41.3787C36.9929 41.1151 37.3149 40.8994 37.4578 40.8994C37.6009 40.8994 37.7178 40.8275 37.7178 40.7396C37.7178 40.6518 37.8332 40.5799 37.9743 40.5799C38.1156 40.5799 38.5121 40.2923 38.8558 39.9408C39.1995 39.5893 39.596 39.3018 39.7373 39.3018C39.8784 39.3018 39.9939 39.2299 39.9939 39.142C39.9939 39.0541 40.1402 38.9822 40.319 38.9822C40.5042 38.9822 40.6442 38.8757 40.6442 38.7349C40.6442 38.5988 41.1563 37.9912 41.7822 37.3846C42.4081 36.778 42.9202 36.2012 42.9202 36.1028C42.9202 35.8418 43.3444 35.4675 43.6403 35.4675C43.7873 35.4675 43.8957 35.332 43.8957 35.1479C43.8957 34.9722 43.9689 34.8284 44.0583 34.8284C44.1477 34.8284 44.2209 34.6846 44.2209 34.5089C44.2209 34.3331 44.1477 34.1893 44.0583 34.1893C43.9689 34.1893 43.8957 34.2612 43.8957 34.3491ZM44.546 42.0177C44.546 42.1056 44.6192 42.1775 44.7086 42.1775C44.798 42.1775 44.8712 42.1056 44.8712 42.0177C44.8712 41.9299 44.798 41.858 44.7086 41.858C44.6192 41.858 44.546 41.9299 44.546 42.0177ZM43.8957 42.3373C43.8957 42.4251 43.7655 42.497 43.6065 42.497C43.4473 42.497 43.2117 42.6408 43.0828 42.8166C42.9539 42.9923 42.7476 43.1361 42.6244 43.1361C42.5013 43.1361 42.1953 43.3518 41.9448 43.6154C41.6647 43.9101 41.3265 44.0947 41.0667 44.0947C40.8342 44.0947 40.6442 44.1666 40.6442 44.2544C40.6442 44.3423 40.514 44.4142 40.3549 44.4142C40.1958 44.4142 39.9602 44.558 39.8313 44.7337C39.7024 44.9095 39.4829 45.0533 39.3436 45.0533C39.2042 45.0533 38.9848 45.197 38.8558 45.3728C38.697 45.5893 38.4349 45.6923 38.0429 45.6923C37.651 45.6923 37.3889 45.7954 37.2301 46.0118C37.1011 46.1876 36.8656 46.3314 36.7064 46.3314C36.5474 46.3314 36.4172 46.4033 36.4172 46.4911C36.4172 46.579 36.2709 46.6509 36.092 46.6509C35.9132 46.6509 35.7669 46.7228 35.7669 46.8106C35.7669 46.8985 35.6206 46.9704 35.4417 46.9704C35.2629 46.9704 35.1166 47.0423 35.1166 47.1302C35.1166 47.218 34.84 47.2899 34.5022 47.2899C34.0743 47.2899 33.8166 47.3869 33.6534 47.6095C33.5157 47.797 33.2325 47.929 32.9671 47.929C32.7187 47.929 32.5153 48.0009 32.5153 48.0888C32.5153 48.1766 32.369 48.2485 32.1902 48.2485C32.0113 48.2485 31.865 48.3204 31.865 48.4083C31.865 48.4962 31.7187 48.568 31.5399 48.568C31.361 48.568 31.2147 48.6399 31.2147 48.7278C31.2147 48.8157 30.8489 48.8876 30.4018 48.8876C29.9548 48.8876 29.589 48.9595 29.589 49.0473C29.589 49.1352 29.3695 49.2071 29.1012 49.2071C28.833 49.2071 28.6135 49.279 28.6135 49.3669C28.6135 49.4547 28.394 49.5266 28.1258 49.5266C27.8575 49.5266 27.638 49.5985 27.638 49.6864C27.638 49.7743 27.3454 49.8462 26.9877 49.8462C26.6301 49.8462 26.3374 49.918 26.3374 50.0059C26.3374 50.0938 26.0448 50.1657 25.6871 50.1657C25.3294 50.1657 25.0368 50.2376 25.0368 50.3254C25.0368 50.4133 24.7442 50.4852 24.3865 50.4852C24.0288 50.4852 23.7362 50.5571 23.7362 50.645C23.7362 50.7474 22.2189 50.8047 19.5092 50.8047C16.7995 50.8047 15.2822 50.7474 15.2822 50.645C15.2822 50.5571 15.209 50.4852 15.1196 50.4852C15.0302 50.4852 14.9571 50.629 14.9571 50.8047C14.9571 50.9805 15.0302 51.1243 15.1196 51.1243C15.209 51.1243 15.2822 51.3091 15.2822 51.535C15.2822 52.037 15.6265 52.4024 16.0995 52.4024C16.2936 52.4024 16.6574 52.618 16.908 52.8817C17.1881 53.1764 17.5263 53.3609 17.7861 53.3609C18.0185 53.3609 18.2086 53.4328 18.2086 53.5207C18.2086 53.6086 18.4281 53.6805 18.6963 53.6805C18.9646 53.6805 19.184 53.7524 19.184 53.8402C19.184 53.9412 20.3221 54 22.273 54C24.2239 54 25.362 53.9412 25.362 53.8402C25.362 53.7524 25.6546 53.6805 26.0123 53.6805C26.3699 53.6805 26.6626 53.6086 26.6626 53.5207C26.6626 53.4328 26.8821 53.3609 27.1503 53.3609C27.4186 53.3609 27.638 53.2891 27.638 53.2012C27.638 53.1133 27.7844 53.0414 27.9632 53.0414C28.142 53.0414 28.2883 52.9695 28.2883 52.8817C28.2883 52.7938 28.4347 52.7219 28.6135 52.7219C28.7923 52.7219 28.9387 52.65 28.9387 52.5621C28.9387 52.4743 29.2313 52.4024 29.589 52.4024C29.9466 52.4024 30.2393 52.3305 30.2393 52.2426C30.2393 52.1547 30.3856 52.0828 30.5644 52.0828C30.7433 52.0828 30.8896 52.0109 30.8896 51.9231C30.8896 51.8352 31.0198 51.7633 31.1788 51.7633C31.338 51.7633 31.5735 51.6195 31.7025 51.4438C31.8314 51.268 32.067 51.1243 32.2261 51.1243C32.3851 51.1243 32.5153 51.0524 32.5153 50.9645C32.5153 50.8766 32.7054 50.8047 32.9379 50.8047C33.1977 50.8047 33.5358 50.6202 33.816 50.3254C34.0665 50.0618 34.3591 49.8462 34.4663 49.8462C34.5734 49.8462 34.866 49.6305 35.1166 49.3669C35.3671 49.1033 35.7305 48.8876 35.9239 48.8876C36.1322 48.8876 36.5989 48.5615 37.0675 48.0888C37.6113 47.54 37.9898 47.2899 38.2762 47.2899C38.5848 47.2899 38.6933 47.2069 38.6933 46.9704C38.6933 46.7841 38.8017 46.6509 38.9532 46.6509C39.0961 46.6509 39.4182 46.4352 39.6687 46.1716C39.9192 45.908 40.2104 45.6923 40.3158 45.6923C40.421 45.6923 40.7882 45.4047 41.1319 45.0533C41.4756 44.7018 41.837 44.4142 41.935 44.4142C42.1091 44.4142 44.2209 42.4245 44.2209 42.2604C44.2209 42.2147 44.1477 42.1775 44.0583 42.1775C43.9689 42.1775 43.8957 42.2494 43.8957 42.3373Z" fill="#D8061A"/>
</svg>
