<svg width="40" height="40" viewBox="0 0 40 40" fill="none" xmlns="http://www.w3.org/2000/svg">
<path fill-rule="evenodd" clip-rule="evenodd" d="M0 9.6875V19.375H3.0625C5.0625 19.375 6.125 19.3967 6.125 19.4375C6.125 19.4757 6.41669 19.5 6.875 19.5C7.33331 19.5 7.625 19.5243 7.625 19.5625C7.625 19.5969 7.76562 19.625 7.9375 19.625C8.10938 19.625 8.25 19.6531 8.25 19.6875C8.25 19.7222 8.41669 19.75 8.625 19.75C8.83331 19.75 9 19.7778 9 19.8125C9 19.8472 9.16669 19.875 9.375 19.875C9.58331 19.875 9.75 19.9028 9.75 19.9375C9.75 19.9719 9.83438 20 9.9375 20C10.0406 20 10.125 20.0281 10.125 20.0625C10.125 20.0969 10.2375 20.125 10.375 20.125C10.5125 20.125 10.625 20.1531 10.625 20.1875C10.625 20.2219 10.7094 20.25 10.8125 20.25C10.9156 20.25 11 20.2781 11 20.3125C11 20.3469 11.0844 20.375 11.1875 20.375C11.2906 20.375 11.375 20.4031 11.375 20.4375C11.375 20.4719 11.4594 20.5 11.5625 20.5C11.6656 20.5 11.75 20.5281 11.75 20.5625C11.75 20.5969 11.8062 20.625 11.875 20.625C11.9438 20.625 12 20.6531 12 20.6875C12 20.7219 12.0844 20.75 12.1875 20.75C12.2906 20.75 12.375 20.7781 12.375 20.8125C12.375 20.8469 12.4312 20.875 12.5 20.875C12.5688 20.875 12.625 20.9031 12.625 20.9375C12.625 20.9719 12.6812 21 12.75 21C12.8188 21 12.875 21.0281 12.875 21.0625C12.875 21.0969 12.9312 21.125 13 21.125C13.0688 21.125 13.125 21.1531 13.125 21.1875C13.125 21.2219 13.1812 21.25 13.25 21.25C13.3188 21.25 13.375 21.2781 13.375 21.3125C13.375 21.3469 13.4312 21.375 13.5 21.375C13.5688 21.375 13.625 21.4031 13.625 21.4375C13.625 21.4719 13.6812 21.5 13.75 21.5C13.8188 21.5 13.875 21.5281 13.875 21.5625C13.875 21.5969 13.9251 21.625 13.9862 21.625C14.0474 21.625 14.1379 21.6812 14.1875 21.75C14.2371 21.8188 14.3214 21.875 14.375 21.875C14.4286 21.875 14.5129 21.9312 14.5625 22C14.6121 22.0688 14.6914 22.125 14.7388 22.125C14.7861 22.125 14.9037 22.2094 15 22.3125C15.0963 22.4156 15.2083 22.5 15.2487 22.5C15.2892 22.5 15.4304 22.6125 15.5625 22.75C15.6946 22.8875 15.8336 23 15.8714 23C15.9762 23 16.625 23.6715 16.625 23.7799C16.625 23.8322 16.6531 23.875 16.6875 23.875C16.7219 23.875 16.75 23.8469 16.75 23.8125C16.75 23.7781 16.7781 23.75 16.8125 23.75C16.8469 23.75 16.875 23.8221 16.875 23.9103C16.875 24.0204 16.9728 24.1659 17.1875 24.375C17.3594 24.5424 17.5 24.7172 17.5 24.7634C17.5 24.8096 17.5562 24.8879 17.625 24.9375C17.6938 24.9871 17.75 25.0664 17.75 25.1138C17.75 25.1611 17.8344 25.2787 17.9375 25.375C18.0406 25.4713 18.125 25.5951 18.125 25.6501C18.125 25.7051 18.1531 25.75 18.1875 25.75C18.2219 25.75 18.25 25.8062 18.25 25.875C18.25 25.9438 18.2781 26 18.3125 26C18.3469 26 18.375 26.0562 18.375 26.125C18.375 26.1938 18.4031 26.25 18.4375 26.25C18.4719 26.25 18.5 26.3001 18.5 26.3612C18.5 26.4224 18.5562 26.5129 18.625 26.5625C18.6939 26.6122 18.75 26.7243 18.75 26.8125C18.75 26.9007 18.8061 27.0128 18.875 27.0625C18.9484 27.1154 19 27.2243 19 27.3263C19 27.4218 19.0281 27.5 19.0625 27.5C19.0969 27.5 19.125 27.5562 19.125 27.625C19.125 27.6938 19.1531 27.75 19.1875 27.75C19.2219 27.75 19.25 27.8344 19.25 27.9375C19.25 28.0406 19.2781 28.125 19.3125 28.125C19.3469 28.125 19.375 28.2094 19.375 28.3125C19.375 28.4156 19.4031 28.5 19.4375 28.5C19.4719 28.5 19.5 28.5562 19.5 28.625C19.5 28.6938 19.5281 28.75 19.5625 28.75C19.5969 28.75 19.625 28.8625 19.625 29C19.625 29.1375 19.6531 29.25 19.6875 29.25C19.7219 29.25 19.75 29.3344 19.75 29.4375C19.75 29.5406 19.7781 29.625 19.8125 29.625C19.8469 29.625 19.875 29.7375 19.875 29.875C19.875 30.0125 19.9031 30.125 19.9375 30.125C19.9719 30.125 20 30.2375 20 30.375C20 30.5125 20.0281 30.625 20.0625 30.625C20.0972 30.625 20.125 30.7917 20.125 31C20.125 31.2083 20.1528 31.375 20.1875 31.375C20.2219 31.375 20.25 31.5133 20.25 31.6823C20.25 31.8696 20.2805 32.0019 20.3281 32.0213C20.3871 32.0452 20.3833 32.0706 20.3125 32.125C20.2417 32.1794 20.2379 32.2048 20.2969 32.2287C20.3488 32.2498 20.375 32.4054 20.375 32.6927C20.375 32.9393 20.4019 33.125 20.4375 33.125C20.4784 33.125 20.5 34.3125 20.5 36.5625V40H30.1607C38.45 40 39.8341 39.9873 39.9107 39.9107C39.9877 39.8337 40 37.0833 40 19.9107V0H20H0V9.6875ZM31.75 19.9375V31.75H30.125C28.5417 31.75 28.5 31.7468 28.5 31.625C28.5 31.5562 28.4719 31.5 28.4375 31.5C28.4011 31.5 28.375 31.2917 28.375 31C28.375 30.7083 28.3489 30.5 28.3125 30.5C28.2781 30.5 28.25 30.3594 28.25 30.1875C28.25 30.0156 28.2219 29.875 28.1875 29.875C28.1528 29.875 28.125 29.7083 28.125 29.5C28.125 29.2917 28.0972 29.125 28.0625 29.125C28.0281 29.125 28 29.0125 28 28.875C28 28.7375 27.9719 28.625 27.9375 28.625C27.9031 28.625 27.875 28.5125 27.875 28.375C27.875 28.2375 27.8469 28.125 27.8125 28.125C27.7781 28.125 27.75 27.9844 27.75 27.8125C27.75 27.6406 27.7219 27.5 27.6875 27.5C27.6531 27.5 27.625 27.4156 27.625 27.3125C27.625 27.2094 27.5969 27.125 27.5625 27.125C27.5281 27.125 27.5 27.0125 27.5 26.875C27.5 26.7375 27.4719 26.625 27.4375 26.625C27.4031 26.625 27.375 26.5688 27.375 26.5C27.375 26.4312 27.3469 26.375 27.3125 26.375C27.2781 26.375 27.25 26.2625 27.25 26.125C27.25 25.9875 27.2219 25.875 27.1875 25.875C27.1531 25.875 27.125 25.8188 27.125 25.75C27.125 25.6812 27.0969 25.625 27.0625 25.625C27.0281 25.625 27 25.5406 27 25.4375C27 25.3344 26.9719 25.25 26.9375 25.25C26.9031 25.25 26.875 25.1656 26.875 25.0625C26.875 24.9594 26.8469 24.875 26.8125 24.875C26.7781 24.875 26.75 24.8188 26.75 24.75C26.75 24.6812 26.7219 24.625 26.6875 24.625C26.6531 24.625 26.625 24.5406 26.625 24.4375C26.625 24.3344 26.5969 24.25 26.5625 24.25C26.5281 24.25 26.5 24.1938 26.5 24.125C26.5 24.0562 26.4719 24 26.4375 24C26.4031 24 26.375 23.9438 26.375 23.875C26.375 23.8062 26.3469 23.75 26.3125 23.75C26.2781 23.75 26.25 23.6938 26.25 23.625C26.25 23.5562 26.2219 23.5 26.1875 23.5C26.1531 23.5 26.125 23.4438 26.125 23.375C26.125 23.3062 26.0969 23.25 26.0625 23.25C26.0281 23.25 26 23.1718 26 23.0763C26 22.9743 25.9484 22.8654 25.875 22.8125C25.8062 22.7629 25.75 22.6724 25.75 22.6112C25.75 22.5501 25.7219 22.5 25.6875 22.5C25.6531 22.5 25.625 22.4438 25.625 22.375C25.625 22.3062 25.5969 22.25 25.5625 22.25C25.5281 22.25 25.5 22.1938 25.5 22.125C25.5 22.0562 25.4719 22 25.4375 22C25.4031 22 25.375 21.9499 25.375 21.8888C25.375 21.8276 25.3188 21.7371 25.25 21.6875C25.1812 21.6379 25.125 21.5536 25.125 21.5C25.125 21.4464 25.0688 21.3621 25 21.3125C24.9312 21.2629 24.875 21.1724 24.875 21.1112C24.875 21.0501 24.8469 21 24.8125 21C24.7781 21 24.75 20.9499 24.75 20.8888C24.75 20.8276 24.6938 20.7371 24.625 20.6875C24.5562 20.6379 24.5 20.5586 24.5 20.5112C24.5 20.4639 24.4156 20.3463 24.3125 20.25C24.2094 20.1537 24.125 20.0417 24.125 20.0012C24.125 19.9608 24.0125 19.8196 23.875 19.6875C23.7375 19.5554 23.625 19.4151 23.625 19.3758C23.625 19.3366 23.4844 19.1674 23.3125 19C23.1406 18.8326 23 18.6654 23 18.6285C23 18.5408 21.3342 16.875 21.2465 16.875C21.2096 16.875 21.0424 16.7344 20.875 16.5625C20.7076 16.3906 20.5384 16.25 20.4992 16.25C20.4599 16.25 20.3196 16.1375 20.1875 16C20.0554 15.8625 19.9091 15.75 19.8624 15.75C19.8158 15.75 19.7371 15.6938 19.6875 15.625C19.6379 15.5562 19.5536 15.5 19.5 15.5C19.4464 15.5 19.3621 15.4438 19.3125 15.375C19.2629 15.3062 19.1786 15.25 19.125 15.25C19.0714 15.25 18.9871 15.1938 18.9375 15.125C18.8879 15.0562 18.8036 15 18.75 15C18.6964 15 18.6121 14.9438 18.5625 14.875C18.5129 14.8062 18.4224 14.75 18.3612 14.75C18.3001 14.75 18.25 14.7219 18.25 14.6875C18.25 14.6531 18.1938 14.625 18.125 14.625C18.0562 14.625 18 14.5969 18 14.5625C18 14.5281 17.9499 14.5 17.8888 14.5C17.8276 14.5 17.7371 14.4438 17.6875 14.375C17.6379 14.3062 17.5474 14.25 17.4862 14.25C17.4251 14.25 17.375 14.2219 17.375 14.1875C17.375 14.1531 17.3188 14.125 17.25 14.125C17.1812 14.125 17.125 14.0969 17.125 14.0625C17.125 14.0281 17.0688 14 17 14C16.9312 14 16.875 13.9719 16.875 13.9375C16.875 13.9031 16.8188 13.875 16.75 13.875C16.6812 13.875 16.625 13.8469 16.625 13.8125C16.625 13.7781 16.5688 13.75 16.5 13.75C16.4312 13.75 16.375 13.7219 16.375 13.6875C16.375 13.6531 16.3188 13.625 16.25 13.625C16.1812 13.625 16.125 13.5969 16.125 13.5625C16.125 13.5281 16.0688 13.5 16 13.5C15.9312 13.5 15.875 13.4719 15.875 13.4375C15.875 13.4031 15.7906 13.375 15.6875 13.375C15.5844 13.375 15.5 13.3469 15.5 13.3125C15.5 13.2781 15.4438 13.25 15.375 13.25C15.3062 13.25 15.25 13.2219 15.25 13.1875C15.25 13.1531 15.1656 13.125 15.0625 13.125C14.9594 13.125 14.875 13.0969 14.875 13.0625C14.875 13.0281 14.8188 13 14.75 13C14.6812 13 14.625 12.9719 14.625 12.9375C14.625 12.9031 14.5406 12.875 14.4375 12.875C14.3344 12.875 14.25 12.8469 14.25 12.8125C14.25 12.7781 14.1375 12.75 14 12.75C13.8625 12.75 13.75 12.7219 13.75 12.6875C13.75 12.6531 13.6938 12.625 13.625 12.625C13.5562 12.625 13.5 12.5969 13.5 12.5625C13.5 12.5281 13.3875 12.5 13.25 12.5C13.1125 12.5 13 12.4719 13 12.4375C13 12.4031 12.9438 12.375 12.875 12.375C12.8062 12.375 12.75 12.3469 12.75 12.3125C12.75 12.2781 12.6094 12.25 12.4375 12.25C12.2656 12.25 12.125 12.2219 12.125 12.1875C12.125 12.1531 12.0406 12.125 11.9375 12.125C11.8344 12.125 11.75 12.0969 11.75 12.0625C11.75 12.0281 11.6375 12 11.5 12C11.3625 12 11.25 11.9719 11.25 11.9375C11.25 11.9028 11.0833 11.875 10.875 11.875C10.6667 11.875 10.5 11.8472 10.5 11.8125C10.5 11.7781 10.3875 11.75 10.25 11.75C10.1125 11.75 10 11.7219 10 11.6875C10 11.6518 9.8125 11.625 9.5625 11.625C9.3125 11.625 9.125 11.5982 9.125 11.5625C9.125 11.5272 8.94644 11.5 8.71431 11.5C8.44169 11.5 8.27356 11.47 8.21431 11.4107C8.14156 11.338 8.125 11.025 8.125 9.72319V8.125H19.9375H31.75V19.9375ZM22.25 18.1875C22.25 18.2219 22.2219 18.25 22.1875 18.25C22.1531 18.25 22.125 18.2219 22.125 18.1875C22.125 18.1531 22.1531 18.125 22.1875 18.125C22.2219 18.125 22.25 18.1531 22.25 18.1875Z" fill="white"/>
</svg>
