<svg width="55" height="34" viewBox="0 0 55 34" fill="none" xmlns="http://www.w3.org/2000/svg">
<path fill-rule="evenodd" clip-rule="evenodd" d="M42.3559 8.42119L34.3877 8.37687V3.01451C34.3877 2.2168 34.0641 1.49443 33.5368 0.971493C33.0138 0.44412 32.2915 0.120605 31.4938 0.120605H9.40615C8.60844 0.120605 7.88607 0.44412 7.36313 0.971493C6.84019 1.49443 6.51224 2.2168 6.51224 3.01451C6.51224 3.44881 6.86235 3.79892 7.29666 3.79892C7.73096 3.79892 8.08107 3.44881 8.08107 3.01451C8.08107 2.65111 8.23175 2.31873 8.47106 2.07942C8.71037 1.84011 9.04275 1.68943 9.40615 1.68943H31.4938C31.8572 1.68943 32.1895 1.84011 32.4288 2.07942C32.6682 2.31873 32.8188 2.65111 32.8188 3.01451V27.5706H28.396C27.9617 27.5706 27.6116 27.9207 27.6116 28.355C27.6116 28.7893 27.9617 29.1394 28.396 29.1394H33.6032C34.0376 29.1394 34.3877 28.7893 34.3877 28.355V27.4642H39.1207C39.4797 19.301 51.2015 18.1754 52.3937 27.4642H54.9685L54.1752 18.9465L45.724 15.7113L42.3559 8.42119ZM1.68612 16.7572C1.03466 16.7572 0.511719 16.4027 0.511719 15.9684C0.511719 15.5341 1.03909 15.1795 1.68612 15.1795H12.2735C12.9249 15.1795 13.4479 15.5341 13.4479 15.9684C13.4479 16.4027 12.9205 16.7572 12.2735 16.7572H1.68612ZM4.11026 12.5116C3.62277 12.5116 3.22835 12.1615 3.22835 11.7272C3.22835 11.2929 3.62277 10.9428 4.11026 10.9428H12.2779C12.7654 10.9428 13.1598 11.2929 13.1598 11.7272C13.1598 12.1615 12.7654 12.5116 12.2779 12.5116H4.11026ZM5.23148 8.26608C4.744 8.26608 4.34957 7.91597 4.34957 7.48167C4.34957 7.04736 4.744 6.69725 5.23148 6.69725H12.2735C12.7609 6.69725 13.1554 7.04736 13.1554 7.48167C13.1554 7.91597 12.7609 8.26608 12.2735 8.26608H5.23148ZM12.238 27.5661C12.6723 27.5661 13.0224 27.9163 13.0224 28.3506C13.0224 28.7849 12.6723 29.135 12.238 29.135H9.40615C8.61287 29.135 7.8905 28.7893 7.36313 28.2442C6.84019 27.6991 6.51224 26.9546 6.51224 26.1657V20.4045C6.51224 19.9702 6.86235 19.6201 7.29666 19.6201C7.73096 19.6201 8.08107 19.9702 8.08107 20.4045V26.1657C8.08107 26.5424 8.23618 26.9014 8.48878 27.1629C8.7281 27.411 9.05161 27.5706 9.40172 27.5706H12.238V27.5661ZM20.2151 22.4431C17.2813 22.4431 14.9015 24.8229 14.9015 27.7567C14.9015 30.6905 17.2813 33.0703 20.2151 33.0703C23.1489 33.0703 25.5287 30.6905 25.5287 27.7567C25.5243 24.8229 23.1489 22.4431 20.2151 22.4431ZM20.2151 25.7137C19.0894 25.7137 18.1721 26.6266 18.1721 27.7567C18.1721 28.8824 19.085 29.7997 20.2151 29.7997C21.3407 29.7997 22.2581 28.8868 22.2581 27.7567C22.2537 26.6266 21.3407 25.7137 20.2151 25.7137ZM45.7417 22.4431C42.8079 22.4431 40.4281 24.8229 40.4281 27.7567C40.4281 30.6905 42.8079 33.0703 45.7417 33.0703C48.6755 33.0703 51.0553 30.6905 51.0553 27.7567C51.0553 24.8229 48.6755 22.4431 45.7417 22.4431ZM45.7417 25.7137C44.616 25.7137 43.6987 26.6266 43.6987 27.7567C43.6987 28.8824 44.6116 29.7997 45.7417 29.7997C46.8718 29.7997 47.7847 28.8868 47.7847 27.7567C47.7847 26.6266 46.8718 25.7137 45.7417 25.7137ZM40.304 10.6725L36.3465 10.6282V15.7202H42.9807L40.304 10.6725Z" fill="#FF3346"/>
</svg>
