<svg width="49" height="37" viewBox="0 0 49 37" fill="none" xmlns="http://www.w3.org/2000/svg">
<path d="M44.3068 11.7119H18.9791C16.5267 11.7119 14.5166 13.722 14.5166 16.1744V32.2153C14.5166 34.6677 16.5267 36.6778 18.9791 36.6778H44.3068C46.7592 36.6778 48.7693 34.6677 48.7693 32.2153V16.1744C48.7793 13.712 46.7592 11.7119 44.3068 11.7119ZM46.3672 32.2756C46.3672 33.16 45.6435 33.8937 44.749 33.8937H18.9288C18.0444 33.8937 17.3107 33.1701 17.3107 32.2756V20.9887H46.3672V32.2756ZM46.3672 16.7373H17.3107V16.1242C17.3107 15.2397 18.0343 14.506 18.9288 14.506H44.749C45.6335 14.506 46.3672 15.2296 46.3672 16.1242V16.7373Z" fill="white"/>
<path d="M18.6571 8.95823H34.3663L31.1702 2.4856C30.0747 0.274451 27.3912 -0.630109 25.18 0.465414L2.4856 11.682C0.274451 12.7775 -0.630109 15.461 0.465414 17.6722L7.58129 32.0547C8.5361 33.9945 10.7372 34.9392 12.7574 34.3864C12.1543 33.3713 11.8126 32.1954 11.8126 30.9391V15.8128C11.8026 12.0438 14.8881 8.95823 18.6571 8.95823Z" fill="white"/>
<path d="M21.8839 32.1554C22.7583 32.1554 23.5523 31.7634 24.0749 31.1403C24.6076 31.7634 25.3915 32.1554 26.2659 32.1554C27.864 32.1554 29.1605 30.8589 29.1605 29.2608C29.1605 27.6627 27.864 26.3662 26.2659 26.3662C25.3915 26.3662 24.5975 26.7582 24.0749 27.3813C23.5422 26.7582 22.7583 26.3662 21.8839 26.3662C20.2858 26.3662 18.9893 27.6627 18.9893 29.2608C18.9893 30.8589 20.2858 32.1554 21.8839 32.1554Z" fill="white"/>
</svg>
