<svg width="45" height="44" viewBox="0 0 45 44" fill="none" xmlns="http://www.w3.org/2000/svg">
<path fill-rule="evenodd" clip-rule="evenodd" d="M22.1983 0.257302C22.1983 0.284951 22.1304 0.307572 22.0473 0.307572C21.9643 0.307572 21.8964 0.330194 21.8964 0.357843C21.8964 0.385492 21.8622 0.408114 21.8206 0.408114C21.7789 0.408114 20.409 1.7428 18.7765 3.37408C17.144 5.00536 15.7853 6.34005 15.7573 6.34005C15.675 6.34005 13.5432 8.49374 13.5432 8.57679C13.5432 8.61841 13.5205 8.65249 13.4929 8.65249C13.4157 8.65249 13.4331 9.00218 13.5144 9.08336C13.5539 9.12288 13.6219 9.1552 13.6654 9.1552C13.7089 9.1552 13.7445 9.17782 13.7445 9.20547C13.7445 9.2382 14.4825 9.25574 15.8579 9.25574C17.2333 9.25574 17.9714 9.27329 17.9714 9.30601C17.9714 9.33366 18.0061 9.35628 18.0485 9.35628C18.1487 9.35628 18.4746 9.68183 18.4746 9.78192C18.4746 9.8243 18.4972 9.85899 18.5249 9.85899C18.5579 9.85899 18.5752 10.9817 18.5752 13.1266C18.5752 15.2715 18.5925 16.3942 18.6255 16.3942C18.6532 16.3942 18.6759 16.462 18.6759 16.545C18.6759 16.6279 18.6985 16.6958 18.7262 16.6958C18.7539 16.6958 18.7765 16.7313 18.7765 16.7748C18.7765 16.8717 18.8961 16.9974 18.9882 16.9974C19.0256 16.9974 19.0888 17.0427 19.1287 17.098C19.2 17.1968 19.259 17.1985 22.612 17.1985C24.8522 17.1985 26.0226 17.1813 26.0226 17.1482C26.0226 17.1206 26.0572 17.098 26.0994 17.098C26.1417 17.098 26.2776 16.9968 26.4014 16.873C26.6017 16.673 26.6265 16.6231 26.6265 16.4206C26.6265 16.2955 26.6491 16.1931 26.6768 16.1931C26.7098 16.1931 26.7271 15.1039 26.7271 13.026C26.7271 10.9482 26.7444 9.85899 26.7775 9.85899C26.8051 9.85899 26.8278 9.8243 26.8278 9.78192C26.8278 9.68183 27.1536 9.35628 27.2538 9.35628C27.2963 9.35628 27.331 9.33366 27.331 9.30601C27.331 9.27334 28.0187 9.25574 29.2935 9.25574C30.5682 9.25574 31.256 9.23815 31.256 9.20547C31.256 9.17782 31.3239 9.1552 31.4069 9.1552C31.5564 9.1552 31.5579 9.15244 31.5579 8.87861V8.60207L27.5072 4.55534C25.2793 2.32966 23.4224 0.508655 23.3809 0.508655C23.3394 0.508655 23.3053 0.486033 23.3053 0.458384C23.3053 0.430735 23.2601 0.408114 23.2047 0.408114C23.1493 0.408114 23.1041 0.385492 23.1041 0.357843C23.1041 0.330194 23.0588 0.307572 23.0034 0.307572C22.9481 0.307572 22.9028 0.284951 22.9028 0.257302C22.9028 0.228597 22.7518 0.207031 22.5505 0.207031C22.3493 0.207031 22.1983 0.228597 22.1983 0.257302ZM9.31625 12.825C9.31625 12.8526 9.28203 12.8752 9.24027 12.8752C9.19845 12.8752 8.37214 13.667 7.40407 14.6347C6.43601 15.6024 5.62097 16.3942 5.59294 16.3942C5.51042 16.3942 0.862415 21.0617 0.862415 21.1446C0.862415 21.1862 0.83977 21.2201 0.812094 21.2201C0.784418 21.2201 0.761774 21.2654 0.761774 21.3207C0.761774 21.376 0.73913 21.4212 0.711453 21.4212C0.683777 21.4212 0.661133 21.5343 0.661133 21.6726C0.661133 21.8108 0.683777 21.9239 0.711453 21.9239C0.73913 21.9239 0.761774 21.9692 0.761774 22.0245C0.761774 22.0798 0.784418 22.125 0.812094 22.125C0.83977 22.125 0.862415 22.159 0.862415 22.2005C0.862415 22.2992 9.0413 30.4699 9.14003 30.4699C9.18159 30.4699 9.21561 30.4926 9.21561 30.5202C9.21561 30.5973 9.56564 30.5799 9.64691 30.4986C9.68646 30.4592 9.71882 30.3913 9.71882 30.3478C9.71882 30.3044 9.74146 30.2689 9.76914 30.2689C9.8025 30.2689 9.81946 27.3867 9.81946 21.7229C9.81946 16.059 9.8025 13.1768 9.76914 13.1768C9.74146 13.1768 9.71882 13.109 9.71882 13.026C9.71882 12.9088 9.69647 12.8752 9.61817 12.8752C9.56282 12.8752 9.51753 12.8526 9.51753 12.825C9.51753 12.7973 9.47225 12.7747 9.41689 12.7747C9.36154 12.7747 9.31625 12.7973 9.31625 12.825ZM35.5961 13.1027L35.4829 13.2235V21.6456C35.4829 27.2269 35.4999 30.0678 35.5332 30.0678C35.5609 30.0678 35.5835 30.1356 35.5835 30.2186C35.5835 30.3577 35.5973 30.3694 35.7613 30.3694C35.9206 30.3694 35.9961 30.312 36.4893 29.8164C36.792 29.5123 37.063 29.2634 37.0916 29.2634C37.1749 29.2634 44.2387 22.1834 44.2387 22.1C44.2387 22.0585 44.2613 22.0245 44.289 22.0245C44.3177 22.0245 44.3393 21.8737 44.3393 21.6726C44.3393 21.4715 44.3177 21.3207 44.289 21.3207C44.2613 21.3207 44.2387 21.2867 44.2387 21.2451C44.2387 21.1623 40.0939 16.9974 40.0114 16.9974C39.9834 16.9974 39.0778 16.1152 37.9989 15.0369C36.92 13.9586 36.0032 13.0763 35.9614 13.0763C35.9196 13.0763 35.8855 13.0537 35.8855 13.026C35.8855 12.934 35.7109 12.9803 35.5961 13.1027ZM19.3803 25.9959C19.3803 26.0235 19.323 26.0461 19.2529 26.0461C19.1111 26.0461 18.7765 26.3451 18.7765 26.4718C18.7765 26.5141 18.7539 26.5488 18.7262 26.5488C18.6985 26.5488 18.6759 26.5941 18.6759 26.6494C18.6759 26.7047 18.6532 26.7499 18.6255 26.7499C18.5925 26.7499 18.5752 27.9397 18.5752 30.2186C18.5752 32.4975 18.558 33.6873 18.5249 33.6873C18.4972 33.6873 18.4746 33.7325 18.4746 33.7878C18.4746 33.8431 18.4519 33.8883 18.4243 33.8883C18.3966 33.8883 18.3739 33.9233 18.3739 33.966C18.3739 34.0666 18.1498 34.2905 18.0491 34.2905C18.0063 34.2905 17.9714 34.3131 17.9714 34.3408C17.9714 34.3735 17.2836 34.391 16.0089 34.391C14.7341 34.391 14.0464 34.4086 14.0464 34.4413C14.0464 34.469 13.9882 34.4916 13.917 34.4916C13.7606 34.4916 13.6438 34.5977 13.6438 34.7398C13.6438 34.8106 14.3897 35.5892 15.9586 37.1559C17.2317 38.4273 18.2733 39.4904 18.2733 39.5184C18.2733 39.5937 21.734 43.0376 21.8096 43.0376C21.8451 43.0376 21.9068 43.0828 21.9467 43.1381C21.9893 43.1972 22.077 43.2387 22.1591 43.2387C22.236 43.2387 22.2989 43.2613 22.2989 43.2889C22.2989 43.3166 22.4122 43.3392 22.5505 43.3392C22.6889 43.3392 22.8021 43.3166 22.8021 43.2889C22.8021 43.2613 22.8474 43.2387 22.9028 43.2387C22.9581 43.2387 23.0034 43.2161 23.0034 43.1884C23.0034 43.1608 23.0374 43.1381 23.079 43.1381C23.175 43.1381 31.3566 34.9688 31.3566 34.8729C31.3566 34.8337 31.3849 34.7884 31.4195 34.7722C31.4698 34.7488 31.4698 34.7371 31.4195 34.7136C31.3849 34.6975 31.3566 34.6409 31.3566 34.588C31.3566 34.509 31.3201 34.4916 31.1553 34.4916C31.0446 34.4916 30.9541 34.469 30.9541 34.4413C30.9541 34.4087 30.3166 34.391 29.1425 34.391C27.9684 34.391 27.331 34.3734 27.331 34.3408C27.331 34.3131 27.2963 34.2905 27.2538 34.2905C27.2114 34.2905 27.0981 34.2121 27.0022 34.1162C26.9063 34.0204 26.8278 33.9073 26.8278 33.8649C26.8278 33.8225 26.8051 33.7878 26.7775 33.7878C26.7444 33.7878 26.7271 32.6148 26.7271 30.3694C26.7271 28.124 26.7099 26.951 26.6768 26.951C26.6491 26.951 26.6265 26.8605 26.6265 26.7499C26.6265 26.6393 26.6038 26.5488 26.5762 26.5488C26.5485 26.5488 26.5259 26.5139 26.5259 26.4712C26.5259 26.3706 26.3017 26.1467 26.201 26.1467C26.1583 26.1467 26.1233 26.124 26.1233 26.0964C26.1233 26.0687 26.0554 26.0461 25.9723 26.0461C25.8893 26.0461 25.8214 26.0235 25.8214 25.9959C25.8214 25.9629 24.7143 25.9456 22.6009 25.9456C20.4874 25.9456 19.3803 25.9629 19.3803 25.9959Z" fill="white"/>
</svg>
