<svg width="518" height="365" viewBox="0 0 518 365" fill="none" xmlns="http://www.w3.org/2000/svg">
<path d="M264.553 364.227C280.133 364.227 292.763 351.598 292.763 336.021C292.763 320.443 280.133 307.814 264.553 307.814C248.973 307.814 236.343 320.443 236.343 336.021C236.343 351.598 248.973 364.227 264.553 364.227Z" fill="#FF3346"/>
<path d="M433.079 362.642C448.861 357.903 465.639 352.961 478.155 341.695C489.34 331.628 496.89 316.255 492.257 301.157C487.633 286.09 473.783 276.044 459.484 271.047C451.373 268.213 442.889 266.64 434.407 265.405C425.187 264.063 415.926 262.963 406.669 261.904C369.188 257.618 331.566 254.999 293.804 254.049C275.17 253.579 256.54 253.591 237.904 253.861C221.261 254.103 203.732 254.097 188.293 247.024C176.286 241.524 165.389 231.517 162.043 218.368C158.182 203.189 165.305 187.731 175.523 176.738C180.909 170.944 187.203 166.067 193.697 161.582C200.742 156.717 208.032 152.197 215.48 147.977C230.15 139.67 245.487 132.601 261.331 126.842C269.148 124 277.08 121.548 285.081 119.287C291.837 117.377 298.615 115.464 305.144 112.862C317.767 107.832 329.773 99.3109 332.983 85.3418C336.025 72.1024 330.896 57.7301 321.904 47.8948C311.502 36.5161 295.817 31.528 280.779 30.721C263.898 29.8149 247.405 34.0395 231.537 39.401C214.613 45.1195 198.054 51.6947 180.773 56.3266C163.636 60.9153 146.168 64.162 128.527 66.0372C119.891 66.9567 110.994 67.9949 102.306 67.291C95.0253 66.7011 87.7817 64.5601 82.4158 59.3935C77.8149 54.9635 75.0741 48.8751 76.0164 42.45C76.1875 41.283 77.9605 41.7792 77.7904 42.939C76.6434 50.7602 81.9605 57.9671 88.5126 61.6589C96.0852 65.9255 105.3 65.9314 113.731 65.4434C132.011 64.3395 150.168 61.715 168.013 57.5974C185.547 53.593 202.455 47.8686 219.344 41.7535C235.384 35.9458 251.783 30.2775 268.92 29.0195C283.789 27.928 299.43 30.094 312.384 37.8634C323.768 44.6918 332.139 56.0792 334.807 69.1465C337.413 81.9157 333.803 94.7681 324.136 103.679C314.127 112.905 300.403 116.849 287.613 120.482C271.391 125.09 255.517 130.476 240.152 137.469C224.577 144.538 209.641 152.934 195.507 162.565C181.864 171.887 168.401 183.616 164.086 200.245C162.076 207.992 162.447 216.208 165.81 223.524C168.8 230.03 173.725 235.503 179.462 239.724C193.15 249.795 210.402 251.863 226.937 252.068C245.507 252.299 264.078 251.673 282.654 251.977C320.512 252.599 358.292 254.903 395.995 258.89C405.442 259.889 414.877 260.995 424.301 262.205C432.777 263.294 441.282 264.376 449.615 266.31C464.433 269.749 478.851 276.361 488.061 288.923C492.148 294.368 494.681 300.82 495.388 307.591C496.032 314.658 494.302 321.737 491.107 328.023C484.035 341.936 470.788 350.786 456.72 356.6C449.185 359.714 441.369 362.073 433.568 364.415C432.432 364.757 431.946 362.982 433.079 362.642L433.079 362.642Z" fill="#F2F2F2"/>
<path d="M77.2044 57.3319C85.333 57.3319 91.9225 50.7432 91.9225 42.6156C91.9225 34.4881 85.333 27.8994 77.2044 27.8994C69.0758 27.8994 62.4863 34.4881 62.4863 42.6156C62.4863 50.7432 69.0758 57.3319 77.2044 57.3319Z" fill="#F2F2F2"/>
<path d="M179.311 85.2313C187.439 85.2313 194.029 78.6426 194.029 70.515C194.029 62.3875 187.439 55.7988 179.311 55.7988C171.182 55.7988 164.593 62.3875 164.593 70.515C164.593 78.6426 171.182 85.2313 179.311 85.2313Z" fill="#F2F2F2"/>
<path d="M265.78 29.4324C273.908 29.4324 280.498 22.8438 280.498 14.7162C280.498 6.58868 273.908 0 265.78 0C257.651 0 251.062 6.58868 251.062 14.7162C251.062 22.8438 257.651 29.4324 265.78 29.4324Z" fill="#F2F2F2"/>
<path d="M319.746 91.9764C327.875 91.9764 334.464 85.3877 334.464 77.2602C334.464 69.1326 327.875 62.5439 319.746 62.5439C311.617 62.5439 305.028 69.1326 305.028 77.2602C305.028 85.3877 311.617 91.9764 319.746 91.9764Z" fill="#F2F2F2"/>
<path d="M246.769 164.331C254.897 164.331 261.487 157.743 261.487 149.615C261.487 141.488 254.897 134.899 246.769 134.899C238.64 134.899 232.051 141.488 232.051 149.615C232.051 157.743 238.64 164.331 246.769 164.331Z" fill="#F2F2F2"/>
<path d="M154.167 199.282C162.296 199.282 168.885 192.693 168.885 184.566C168.885 176.438 162.296 169.85 154.167 169.85C146.039 169.85 139.449 176.438 139.449 184.566C139.449 192.693 146.039 199.282 154.167 199.282Z" fill="#F2F2F2"/>
<path d="M252.288 253.855C260.416 253.855 267.006 247.266 267.006 239.139C267.006 231.011 260.416 224.422 252.288 224.422C244.159 224.422 237.57 231.011 237.57 239.139C237.57 247.266 244.159 253.855 252.288 253.855Z" fill="#F2F2F2"/>
<path d="M357.767 284.513C365.896 284.513 372.485 277.925 372.485 269.797C372.485 261.67 365.896 255.081 357.767 255.081C349.639 255.081 343.049 261.67 343.049 269.797C343.049 277.925 349.639 284.513 357.767 284.513Z" fill="#F2F2F2"/>
<path d="M481.032 277.769C489.16 277.769 495.75 271.18 495.75 263.053C495.75 254.925 489.16 248.336 481.032 248.336C472.903 248.336 466.313 254.925 466.313 263.053C466.313 271.18 472.903 277.769 481.032 277.769Z" fill="#F2F2F2"/>
<path d="M261.531 41.6979C217.443 42.0093 181.344 77.8323 180.718 121.911C180.712 122.318 180.71 125.18 180.71 128.923C180.71 134.41 182.891 139.673 186.771 143.553C190.652 147.434 195.915 149.614 201.404 149.615H201.404C204.124 149.614 206.818 149.078 209.331 148.036C211.844 146.994 214.127 145.467 216.05 143.542C217.973 141.618 219.498 139.333 220.537 136.819C221.576 134.305 222.11 131.611 222.108 128.891C222.106 126.345 222.104 124.583 222.104 124.475C222.103 117.662 223.875 110.967 227.247 105.047C230.618 99.1272 235.473 94.1869 241.333 90.712C247.193 87.2372 253.857 85.3475 260.669 85.2289C267.482 85.1102 274.207 86.7668 280.185 90.0355C286.163 93.3042 291.186 98.0725 294.762 103.871C298.338 109.67 300.342 116.3 300.578 123.108C300.814 129.916 299.273 136.669 296.107 142.701C292.941 148.733 288.259 153.838 282.522 157.512L282.529 157.521C282.529 157.521 253.076 176.48 244.096 202.488L244.104 202.49C242.525 207.818 241.725 213.347 241.728 218.904C241.728 221.188 241.863 241.175 242.123 257.397C242.213 262.995 244.501 268.332 248.493 272.258C252.484 276.184 257.859 278.383 263.458 278.382H263.458C266.271 278.382 269.056 277.825 271.654 276.745C274.251 275.664 276.609 274.081 278.592 272.086C280.575 270.09 282.144 267.723 283.209 265.119C284.273 262.515 284.813 259.727 284.795 256.914C284.705 242.057 284.656 224.758 284.656 223.502C284.656 207.532 300.064 191.621 312.721 181.244C327.295 169.295 337.783 153.012 341.996 134.643C342.928 130.861 343.442 126.989 343.529 123.095C343.529 112.356 341.403 101.723 337.275 91.8091C333.147 81.895 327.098 72.8956 319.476 65.3295C311.854 57.7634 302.81 51.7801 292.865 47.7243C282.92 43.6685 272.271 41.6203 261.531 41.6979Z" fill="#FF3346"/>
<path d="M385.399 167.395C395.559 167.395 403.796 159.159 403.796 148.999C403.796 138.84 395.559 130.604 385.399 130.604C375.238 130.604 367.001 138.84 367.001 148.999C367.001 159.159 375.238 167.395 385.399 167.395Z" fill="#573030"/>
<path d="M351.402 356.948H343.884L340.307 327.952H351.403L351.402 356.948Z" fill="#DD828F"/>
<path d="M338.513 354.799H353.013V363.928H329.384C329.384 362.729 329.62 361.542 330.079 360.434C330.538 359.327 331.21 358.321 332.058 357.473C332.905 356.625 333.912 355.953 335.02 355.494C336.127 355.035 337.314 354.799 338.513 354.799Z" fill="#FF3346"/>
<path d="M409.66 356.948H402.143L398.565 327.952H409.662L409.66 356.948Z" fill="#DD828F"/>
<path d="M396.772 354.799H411.272V363.928H387.643C387.643 362.729 387.879 361.542 388.338 360.434C388.796 359.327 389.469 358.321 390.317 357.473C391.164 356.625 392.171 355.953 393.278 355.494C394.386 355.035 395.573 354.799 396.772 354.799Z" fill="#FF3346"/>
<path d="M382.603 167.502C390.921 167.502 397.665 160.759 397.665 152.442C397.665 144.124 390.921 137.381 382.603 137.381C374.284 137.381 367.541 144.124 367.541 152.442C367.541 160.759 374.284 167.502 382.603 167.502Z" fill="#DD828F"/>
<path d="M391.58 216.087L398.32 200.604C399.956 196.972 400.426 192.922 399.662 189.012C398.899 185.102 396.941 181.525 394.058 178.775C393.466 178.19 392.837 177.643 392.175 177.138C388.849 174.537 384.751 173.119 380.529 173.109C377.69 173.12 374.888 173.744 372.312 174.937C372.091 175.035 371.876 175.139 371.655 175.243C371.232 175.446 370.815 175.666 370.411 175.893C367.77 177.409 365.524 179.524 363.851 182.067C362.179 184.611 361.128 187.512 360.782 190.536L357.808 215.455C357.06 217.411 330.371 288.049 339.705 341.978C339.804 342.554 340.085 343.083 340.507 343.488C340.928 343.893 341.468 344.152 342.048 344.228L351.51 345.516C352.201 345.61 352.902 345.44 353.472 345.038C354.042 344.636 354.439 344.034 354.582 343.351L370.46 267.679C370.559 267.209 370.812 266.786 371.18 266.477C371.548 266.168 372.009 265.991 372.489 265.975C372.97 265.959 373.441 266.104 373.829 266.387C374.217 266.671 374.499 267.076 374.63 267.538L397.063 347.116C397.222 347.695 397.567 348.204 398.045 348.568C398.522 348.931 399.106 349.128 399.706 349.128C399.885 349.126 400.063 349.11 400.239 349.079L411.799 346.853C412.471 346.727 413.072 346.355 413.484 345.809C413.896 345.264 414.089 344.584 414.025 343.903C412.326 324.962 403.299 230.086 391.58 216.087Z" fill="#6791B8"/>
<path d="M324.067 164.975C323.963 165.87 324.056 166.778 324.34 167.633C324.624 168.489 325.093 169.272 325.712 169.926C326.331 170.581 327.087 171.093 327.925 171.424C328.764 171.755 329.665 171.899 330.564 171.845L338.984 192.075L345.352 182.635L336.381 164.872C336.189 163.366 335.452 161.983 334.309 160.985C333.166 159.986 331.696 159.442 330.178 159.455C328.66 159.468 327.2 160.037 326.074 161.054C324.948 162.071 324.234 163.467 324.067 164.975L324.067 164.975Z" fill="#DD828F"/>
<path d="M381.767 236.457C382.663 236.35 383.523 236.048 384.289 235.572C385.055 235.097 385.707 234.459 386.2 233.704C386.693 232.949 387.014 232.096 387.141 231.203C387.268 230.311 387.197 229.401 386.935 228.539L404.649 215.639L393.984 211.646L378.798 224.508C377.378 225.045 376.205 226.084 375.5 227.428C374.795 228.773 374.608 230.328 374.975 231.801C375.341 233.274 376.234 234.562 377.486 235.42C378.738 236.278 380.261 236.647 381.767 236.457Z" fill="#DD828F"/>
<path d="M352.89 205.562C352.211 205.561 351.534 205.494 350.867 205.362C349.256 205.056 347.745 204.358 346.467 203.329C345.19 202.301 344.184 200.974 343.541 199.466L331.745 185.085C331.496 184.781 331.314 184.427 331.213 184.047C331.111 183.667 331.092 183.27 331.157 182.882C331.221 182.495 331.368 182.125 331.587 181.798C331.806 181.472 332.092 181.196 332.426 180.989L340.818 175.795C341.128 175.603 341.473 175.474 341.833 175.416C342.192 175.359 342.56 175.372 342.915 175.457C343.269 175.542 343.603 175.697 343.897 175.911C344.192 176.126 344.441 176.397 344.63 176.708L352.943 190.403L368.864 178.638C370.132 177.974 371.596 177.787 372.99 178.113C374.384 178.439 375.614 179.255 376.455 180.413C377.297 181.571 377.694 182.993 377.573 184.419C377.453 185.845 376.824 187.18 375.8 188.18L359.91 202.674C358.042 204.524 355.519 205.563 352.89 205.562Z" fill="#6791B8"/>
<path d="M395.91 227.19C395.889 227.19 395.867 227.19 395.845 227.189C395.458 227.18 395.078 227.089 394.728 226.923C394.378 226.758 394.067 226.52 393.815 226.226L386.354 217.523C386.1 217.227 385.911 216.88 385.801 216.506C385.691 216.131 385.662 215.737 385.715 215.351C385.769 214.964 385.904 214.593 386.111 214.262C386.318 213.931 386.594 213.648 386.918 213.432L400.889 204.119L388.233 188.905C387.496 187.678 387.226 186.226 387.472 184.816C387.717 183.407 388.462 182.132 389.569 181.226C390.677 180.319 392.074 179.842 393.505 179.88C394.936 179.918 396.305 180.47 397.362 181.435L412.745 196.465C413.955 197.571 414.88 198.954 415.438 200.496C415.997 202.037 416.172 203.691 415.951 205.316C415.729 206.94 415.117 208.487 414.166 209.823C413.215 211.158 411.954 212.243 410.491 212.985L397.918 226.323C397.66 226.597 397.349 226.815 397.004 226.964C396.658 227.113 396.286 227.19 395.91 227.19Z" fill="#6791B8"/>
<path d="M378.773 195.121C378.653 195.121 378.533 195.114 378.415 195.098C377.895 195.035 377.404 194.824 377.001 194.491C376.598 194.157 376.299 193.715 376.139 193.217L370.533 176.03C370.392 175.595 370.414 175.125 370.593 174.705C370.773 174.285 371.099 173.944 371.51 173.746L371.692 173.66C371.857 173.582 372.02 173.504 372.187 173.43C374.802 172.218 377.647 171.585 380.529 171.576C384.27 171.583 387.928 172.682 391.053 174.738C391.472 175.017 391.765 175.449 391.869 175.942C391.972 176.434 391.878 176.948 391.606 177.371L381.089 193.846C380.842 194.237 380.5 194.559 380.095 194.782C379.69 195.005 379.235 195.122 378.773 195.121Z" fill="#E6E6E6"/>
<path d="M399.903 140.787C403.228 140.787 405.924 138.092 405.924 134.767C405.924 131.443 403.228 128.748 399.903 128.748C396.579 128.748 393.883 131.443 393.883 134.767C393.883 138.092 396.579 140.787 399.903 140.787Z" fill="#573030"/>
<path d="M379.266 128.151C375.037 128.151 370.982 129.831 367.991 132.821C365.001 135.811 363.321 139.866 363.321 144.094V150.839H371.618L375.586 144.094L376.777 150.839H401.956L395.21 144.094C395.21 139.866 393.531 135.811 390.54 132.821C387.55 129.831 383.495 128.151 379.266 128.151Z" fill="#573030"/>
<path d="M402.998 130.644C403.663 128.563 405.042 126.783 406.89 125.617C408.739 124.451 410.939 123.974 413.104 124.27C416.941 124.911 419.974 127.995 421.782 131.439C423.589 134.883 424.424 138.737 425.639 142.432C426.854 146.126 428.577 149.841 431.644 152.233C434.712 154.624 439.419 155.273 442.431 152.813C442.087 155.377 440.945 157.768 439.168 159.648C437.39 161.527 435.066 162.801 432.525 163.288C429.984 163.774 427.354 163.45 425.007 162.361C422.661 161.271 420.716 159.471 419.448 157.216C417.859 154.388 417.448 151.074 416.977 147.865C416.505 144.655 415.893 141.334 413.995 138.704C412.097 136.073 408.545 134.354 405.53 135.553L402.998 130.644Z" fill="#573030"/>
<path d="M207.247 139.828C201.758 139.827 196.495 137.647 192.614 133.766C188.734 129.886 186.553 124.623 186.553 119.135C186.553 115.393 186.555 112.531 186.561 112.124C186.735 99.3048 189.964 86.7117 195.98 75.3896C186.096 88.9181 180.662 105.183 180.429 121.935C180.423 122.342 180.42 125.204 180.42 128.946C180.421 134.434 182.601 139.697 186.482 143.577C190.363 147.458 195.626 149.638 201.114 149.638C205.624 149.637 210.01 148.163 213.606 145.442C217.202 142.72 219.811 138.9 221.037 134.56C217.248 137.958 212.336 139.834 207.247 139.828Z" fill="#802830"/>
<path d="M262.934 85.2983C269.279 85.6013 275.455 87.4395 280.933 90.655C286.411 93.8705 291.027 98.3672 294.383 103.759C297.74 109.151 299.738 115.277 300.206 121.611C300.673 127.945 299.596 134.298 297.067 140.124C300.725 135.829 303.414 130.795 304.95 125.366C306.486 119.938 306.833 114.242 305.968 108.667C305.103 103.092 303.045 97.7688 299.936 93.0608C296.827 88.3529 292.739 84.3706 287.951 81.3855C283.163 78.4004 277.788 76.4826 272.192 75.7629C266.595 75.0433 260.91 75.5387 255.522 77.2153C250.135 78.8919 245.172 81.7104 240.973 85.4785C236.773 89.2466 233.436 93.8758 231.188 99.0505C235.073 94.4807 239.956 90.8642 245.46 88.4798C250.964 86.0955 256.943 85.007 262.934 85.2983Z" fill="#802830"/>
<path d="M269.301 268.594C263.702 268.596 258.327 266.396 254.336 262.47C250.344 258.545 248.056 253.207 247.966 247.61C247.706 231.388 247.572 211.401 247.572 209.116C247.568 203.559 248.368 198.031 249.947 192.703L249.939 192.701C250.872 190.027 251.998 187.424 253.309 184.913C249.285 190.275 246.082 196.206 243.807 202.512L243.814 202.514C242.235 207.842 241.435 213.37 241.439 218.927C241.439 221.211 241.573 241.198 241.833 257.421C241.924 263.018 244.212 268.355 248.203 272.281C252.195 276.207 257.569 278.406 263.168 278.405C267.784 278.404 272.276 276.907 275.969 274.138C279.662 271.369 282.358 267.477 283.652 263.046C279.729 266.623 274.61 268.602 269.301 268.594Z" fill="#802830"/>
<path d="M77.6014 357.227L85.1193 357.226L88.6964 328.23L77.5996 328.231L77.6014 357.227Z" fill="#FFB8B8"/>
<path d="M99.6196 364.207L75.9905 364.208L75.9901 355.079L90.4898 355.079C92.9111 355.079 95.2332 356.04 96.9454 357.752C98.6576 359.464 99.6195 361.786 99.6196 364.207L99.6196 364.207Z" fill="#606060"/>
<path d="M50.6185 357.227L58.1364 357.226L61.7135 328.23L50.6167 328.231L50.6185 357.227Z" fill="#FFB8B8"/>
<path d="M72.6367 364.207L49.0076 364.208L49.0072 355.079L63.5069 355.079C65.9282 355.079 68.2503 356.04 69.9625 357.752C71.6747 359.464 72.6366 361.786 72.6367 364.207L72.6367 364.207Z" fill="#606060"/>
<path d="M57.1887 348.309L49.845 347.923C49.4663 347.903 49.0953 347.808 48.7536 347.644C48.4118 347.48 48.1061 347.249 47.8541 346.966C47.602 346.683 47.4087 346.352 47.2853 345.994C47.162 345.635 47.111 345.256 47.1353 344.877L55.9126 247.71L96.3327 258.616L100.227 257.553L88.0489 343.573C87.9451 344.22 87.6237 344.812 87.1378 345.252C86.6519 345.692 86.0305 345.953 85.3762 345.991L77.4598 346.36C77.0639 346.382 76.6678 346.322 76.2965 346.183C75.9252 346.044 75.5867 345.83 75.3025 345.553C75.0183 345.277 74.7945 344.945 74.6453 344.577C74.496 344.21 74.4246 343.816 74.4355 343.42L75.8699 291.792C75.8766 291.554 75.7937 291.321 75.6374 291.141C75.4811 290.96 75.2629 290.844 75.0256 290.817C74.7884 290.789 74.5493 290.851 74.3556 290.991C74.162 291.131 74.0276 291.338 73.9791 291.572L60.146 346.029C60.0155 346.675 59.6648 347.256 59.1538 347.673C58.6429 348.089 58.0033 348.316 57.344 348.314C57.2926 348.314 57.2408 348.312 57.1887 348.309Z" fill="#6791B8"/>
<path d="M78.9513 168.206C87.2699 168.206 94.0134 161.464 94.0134 153.146C94.0134 144.829 87.2699 138.086 78.9513 138.086C70.6327 138.086 63.8892 144.829 63.8892 153.146C63.8892 161.464 70.6327 168.206 78.9513 168.206Z" fill="#FFB8B8"/>
<path d="M53.8741 197.392L55.5302 233.12L56.1289 246.119C56.1527 246.684 56.3449 247.23 56.6807 247.686C57.0166 248.142 57.4809 248.488 58.0142 248.679L96.8552 262.747C97.169 262.864 97.5014 262.922 97.8362 262.919C98.2187 262.921 98.5978 262.846 98.9506 262.698C99.3034 262.55 99.6229 262.333 99.8898 262.059C100.157 261.785 100.366 261.459 100.504 261.103C100.643 260.746 100.708 260.366 100.696 259.983L99.1038 195.743C98.9992 190.472 97.0588 185.403 93.6171 181.409C90.1754 177.416 85.4481 174.748 80.2501 173.866C79.8744 173.809 79.4922 173.752 79.11 173.701C75.8868 173.3 72.6151 173.611 69.525 174.612C66.435 175.612 63.6017 177.277 61.2244 179.49C58.7628 181.753 56.8286 184.53 55.5585 187.624C54.2884 190.717 53.7133 194.052 53.874 197.392L53.8741 197.392Z" fill="#CCCCCC"/>
<path d="M115.41 255.618C114.491 255.333 113.652 254.837 112.959 254.17C112.266 253.503 111.738 252.684 111.418 251.777C111.099 250.87 110.995 249.9 111.117 248.946C111.238 247.992 111.581 247.08 112.117 246.282L98.9458 228.769L110.312 228.066L121.077 244.804C122.23 245.695 123.032 246.963 123.343 248.386C123.653 249.809 123.453 251.296 122.777 252.586C122.101 253.876 120.992 254.887 119.645 255.442C118.298 255.996 116.798 256.059 115.41 255.618H115.41Z" fill="#FFB8B8"/>
<path d="M106.148 243.112C105.8 242.971 105.482 242.761 105.215 242.496C104.947 242.231 104.735 241.916 104.59 241.568L84.7463 194.296C84.357 193.37 84.1538 192.377 84.1485 191.373C84.1433 190.369 84.3359 189.374 84.7155 188.444C85.0951 187.514 85.6542 186.669 86.3608 185.955C87.0674 185.242 87.9077 184.675 88.8337 184.286C89.7596 183.897 90.7531 183.695 91.7573 183.691C92.7615 183.686 93.7568 183.879 94.6862 184.26C95.6156 184.64 96.461 185.2 97.174 185.907C97.887 186.614 98.4537 187.454 98.8416 188.381L118.685 235.654C118.979 236.354 118.982 237.143 118.694 237.846C118.407 238.55 117.852 239.11 117.152 239.405L108.342 243.102C107.995 243.249 107.623 243.325 107.246 243.327C106.87 243.329 106.497 243.256 106.148 243.112L106.148 243.112Z" fill="#CCCCCC"/>
<path d="M74.1088 241.445L93.1683 204.956C93.5358 204.254 94.1667 203.726 94.9227 203.489C95.6786 203.252 96.4977 203.324 97.2004 203.69L124.865 218.137C125.567 218.504 126.094 219.135 126.332 219.891C126.569 220.647 126.497 221.466 126.131 222.168L107.071 258.658C106.704 259.36 106.073 259.887 105.317 260.124C104.561 260.361 103.742 260.289 103.039 259.923L75.3742 245.477C74.6724 245.109 74.145 244.478 73.9078 243.722C73.6705 242.967 73.7428 242.148 74.1088 241.445Z" fill="#802830"/>
<path d="M86.8907 224.774C86.5518 223.874 86.0073 223.065 85.3004 222.413C84.5936 221.761 83.7441 221.283 82.8196 221.017C81.8952 220.751 80.9215 220.705 79.9761 220.883C79.0307 221.06 78.1399 221.456 77.3748 222.039L59.1131 209.926L59.082 221.313L76.4284 231.07C77.386 232.167 78.6995 232.893 80.1386 233.119C81.5777 233.345 83.0505 233.057 84.2987 232.306C85.5468 231.555 86.4907 230.389 86.9646 229.011C87.4386 227.634 87.4124 226.134 86.8907 224.774Z" fill="#FFB8B8"/>
<path d="M63.8018 227.335L48.8772 215.514C47.2626 214.972 45.8038 214.046 44.6258 212.816C43.4478 211.587 42.5859 210.089 42.1141 208.453C41.6423 206.817 41.5746 205.09 41.9169 203.422C42.2593 201.754 43.0013 200.194 44.0795 198.876L57.6306 181.118C58.5723 179.968 59.8967 179.194 61.3616 178.94C62.8266 178.685 64.3343 178.966 65.6091 179.731C66.8839 180.497 67.8407 181.695 68.3046 183.108C68.7684 184.52 68.7084 186.052 68.1354 187.424L57.4134 204.961L73.1703 212.434C73.5367 212.608 73.8621 212.857 74.1249 213.166C74.3877 213.475 74.582 213.836 74.6949 214.225C74.8078 214.615 74.8368 215.024 74.7799 215.425C74.7231 215.827 74.5816 216.211 74.365 216.554L68.0045 226.619C67.7895 226.959 67.5055 227.249 67.171 227.472C66.8364 227.695 66.4588 227.846 66.0625 227.913C66.0468 227.916 66.0309 227.919 66.0151 227.921C65.6257 227.98 65.2284 227.958 64.8477 227.857C64.467 227.756 64.111 227.579 63.8018 227.335Z" fill="#CCCCCC"/>
<path d="M67.5702 163.231C67.5056 163.042 67.4851 162.84 67.5103 162.642C67.5355 162.444 67.6057 162.254 67.7156 162.087C67.8255 161.92 67.9721 161.781 68.1442 161.679C68.3163 161.578 68.5094 161.517 68.7086 161.502C69.1166 161.524 69.5158 161.629 69.8822 161.81C70.2486 161.99 70.5745 162.243 70.8403 162.554C71.3854 163.182 72.02 163.727 72.7237 164.171C73.4524 164.538 74.4406 164.485 74.8559 163.785C75.246 163.128 74.9787 162.247 74.7426 161.484C74.1417 159.541 73.8055 157.526 73.743 155.493C73.675 153.224 73.9952 150.856 75.2515 149.087C76.8728 146.803 79.772 145.936 82.5157 145.998C85.2594 146.061 87.9586 146.908 90.6764 147.443C91.6146 147.628 92.7174 147.723 93.3449 146.996C94.0122 146.223 93.7671 144.971 93.4833 143.928C92.7468 141.219 91.9655 138.418 90.2544 136.231C88.4042 133.958 85.7614 132.47 82.858 132.067C80.0707 131.722 77.2412 132.043 74.6022 133.004C70.3026 134.359 66.5193 136.995 63.7582 140.558C60.9119 144.347 59.6819 149.109 60.3374 153.803C60.9777 157.89 63.1441 161.583 66.3999 164.137L67.5702 163.231Z" fill="#232323"/>
<path d="M258.338 357.346C254.331 355.601 250.784 352.949 247.977 349.598C245.171 346.248 243.181 342.291 242.166 338.04C241.151 333.789 241.138 329.361 242.128 325.104C243.117 320.847 245.083 316.878 247.87 313.511C244.639 315.87 241.947 318.888 239.972 322.367C237.997 325.845 236.785 329.704 236.416 333.686C236.047 337.669 236.529 341.684 237.83 345.466C239.132 349.248 241.223 352.71 243.965 355.623C246.706 358.535 250.037 360.831 253.734 362.358C257.431 363.885 261.411 364.608 265.409 364.48C269.407 364.352 273.332 363.374 276.923 361.613C280.515 359.852 283.691 357.347 286.24 354.265C282.264 357.171 277.595 358.985 272.7 359.525C267.805 360.066 262.853 359.315 258.338 357.346Z" fill="#802830"/>
</svg>
