<svg width="12" height="17" viewBox="0 0 12 17" fill="none" xmlns="http://www.w3.org/2000/svg">
<path d="M11.4183 0.0691411L0.151254 8.20518C0.104437 8.23885 0.0663095 8.28314 0.0400117 8.33439C0.0137138 8.38565 0 8.44241 0 8.5C0 8.55759 0.0137138 8.61435 0.0400117 8.66561C0.0663095 8.71686 0.104437 8.76115 0.151254 8.79482L11.4183 16.9309C11.6611 17.1045 12 16.9309 12 16.6338V14.49C12 14.0238 11.7756 13.5805 11.3954 13.3062L4.73594 8.50229L11.3954 3.69379C11.7756 3.41954 12 2.98075 12 2.50995V0.366244C12 0.0691411 11.6611 -0.10455 11.4183 0.0691411Z" fill="#FF3346" fill-opacity="0.7"/>
</svg>
