<svg width="12" height="17" viewBox="0 0 12 17" fill="none" xmlns="http://www.w3.org/2000/svg">
<path d="M0.581675 0.0691411L11.8487 8.20518C11.8956 8.23885 11.9337 8.28314 11.96 8.33439C11.9863 8.38565 12 8.44241 12 8.5C12 8.55759 11.9863 8.61435 11.96 8.66561C11.9337 8.71686 11.8956 8.76115 11.8487 8.79482L0.581675 16.9309C0.338928 17.1045 0 16.9309 0 16.6338V14.49C0 14.0238 0.224425 13.5805 0.604575 13.3062L7.26406 8.50229L0.604575 3.69379C0.224425 3.41954 0 2.98075 0 2.50995V0.366244C0 0.0691411 0.338928 -0.10455 0.581675 0.0691411Z" fill="#FF3346" fill-opacity="0.7"/>
</svg>
